<?xml version="1.0" encoding="UTF-8" standalone="no"?>
<svg
   xmlns:dc="http://purl.org/dc/elements/1.1/"
   xmlns:cc="http://creativecommons.org/ns#"
   xmlns:rdf="http://www.w3.org/1999/02/22-rdf-syntax-ns#"
   xmlns:svg="http://www.w3.org/2000/svg"
   xmlns="http://www.w3.org/2000/svg"
   xmlns:sodipodi="http://sodipodi.sourceforge.net/DTD/sodipodi-0.dtd"
   xmlns:inkscape="http://www.inkscape.org/namespaces/inkscape"
   id="logo-layer"
   viewBox="0 0 107.91799 17.259171"
   version="1.1"
   sodipodi:docname="datalogics.svg"
   width="107.91799"
   height="17.259172"
   inkscape:version="0.92.4 (33fec40, 2019-01-16)">
  <metadata
     id="metadata31">
    <rdf:RDF>
      <cc:Work
         rdf:about="">
        <dc:format>image/svg+xml</dc:format>
        <dc:type
           rdf:resource="http://purl.org/dc/dcmitype/StillImage" />
        <dc:title>fontArtboard 6 copy 3</dc:title>
      </cc:Work>
    </rdf:RDF>
  </metadata>
  <defs
     id="defs29" />
  <sodipodi:namedview
     pagecolor="#ffffff"
     bordercolor="#666666"
     borderopacity="1"
     objecttolerance="10"
     gridtolerance="10"
     guidetolerance="10"
     inkscape:pageopacity="0"
     inkscape:pageshadow="2"
     inkscape:window-width="1427"
     inkscape:window-height="645"
     id="namedview27"
     showgrid="false"
     inkscape:zoom="3.4007711"
     inkscape:cx="77.393735"
     inkscape:cy="14.260344"
     inkscape:window-x="67"
     inkscape:window-y="27"
     inkscape:window-maximized="0"
     inkscape:current-layer="logo-layer" />
  <title
     id="title2">fontArtboard 6 copy 3</title>
  <path
     d="M 0,13.867626 V 0.35562039 h 0.32805 c 1.99579,0 3.99221,-0.0075 5.988,0 a 8.53442,8.53442 0 0 1 3.15237,0.58268 5.198,5.198 0 0 1 3.306,3.92200141 9.5524,9.5524 0 0 1 -0.21576,4.951852 5.36067,5.36067 0 0 1 -4.29327,3.8084322 11.88436,11.88436 0 0 1 -2.26424,0.25089 c -1.91173,0.03512 -3.826,0.01191 -5.73711,0.01128 C 0.18259,13.885806 0.101,13.873886 0,13.867626 Z M 4.39359,7.121323 c 0,1.0970004 0.01005,2.1952404 -0.00627,3.290363 -0.00439,0.28286 0.08593,0.36943 0.35688,0.3481 0.38449,-0.03011 0.7721,-0.02259 1.15658,-0.0508 A 2.60444,2.60444 0 0 0 8.36259,8.6981234 6.99309,6.99309 0 0 0 8.41779,5.4717422 2.15556,2.15556 0 0 0 6.47338,3.5901214 c -0.57641,-0.07716 -1.16411,-0.074 -1.74553,-0.12106 -0.2559,-0.0207 -0.34183,0.06272 -0.3387,0.32866 0.01578,1.1070304 0.00444,2.2165608 0.00444,3.3236016 z"
     id="path4"
     inkscape:connector-curvature="0" />
  <path
     d="M 73.71816,5.3230922 V 4.0737014 h 3.42643 v 0.3293004 c 0,2.6130008 0.01254,5.225943 -0.0082,7.8401742 a 12.74244,12.74244 0 0 1 -0.18817,2.05411 3.03464,3.03464 0 0 1 -2.27239,2.57158 9.41786,9.41786 0 0 1 -5.70011,-0.106 3.13787,3.13787 0 0 1 -1.85968,-1.49647 8.20139,8.20139 0 0 1 -0.31361,-0.81539 c 0.16433,-0.01254 0.2509,-0.02509 0.34371,-0.02509 q 1.64645,0 3.29224,-0.0044 a 0.38033,0.38033 0 0 1 0.39514,0.21828 0.88567,0.88567 0 0 0 0.38888,0.33995 1.46832,1.46832 0 0 0 2.15014,-1.1209 10.13593,10.13593 0 0 0 0.0113,-1.42378 0.80932,0.80932 0 0 0 -0.14865,0.07652 4.1938,4.1938 0 0 1 -6.65788,-2.06986 6.15268,6.15268 0 0 1 0.36,-4.4814438 4.0195,4.0195 0 0 1 6.55563,-0.8780904 c 0.05018,0.05838 0.10224,0.1091804 0.22517,0.2408904 z m -3.535,3.3273712 a 2.78035,2.78035 0 0 0 0.36692,1.3911506 1.49678,1.49678 0 0 0 2.54151,-0.0031 2.79694,2.79694 0 0 0 -0.0088,-2.788591 1.43229,1.43229 0 0 0 -1.531,-0.6950004 1.24477,1.24477 0 0 0 -1.134,0.9408104 c -0.11356,0.37262 -0.15558,0.7683904 -0.23462,1.1547504 z"
     id="path6"
     inkscape:connector-curvature="0" />
  <path
     d="m 25.31242,13.873886 h -4.021 c -0.06711,-0.32928 -0.13293,-0.6523 -0.20443,-1.00354 -0.09345,0.06649 -0.16369,0.10851 -0.22453,0.1612 a 4.76072,4.76072 0 0 1 -2.95731,1.12208 5.33652,5.33652 0 0 1 -2.157,-0.25966 2.68142,2.68142 0 0 1 -1.86533,-2.49506 2.66728,2.66728 0 0 1 1.69348,-2.8224526 10.412,10.412 0 0 1 2.83066,-0.6272104 c 0.5877,-0.0828 1.17791,-0.1681 1.75621,-0.30734 0.5074,-0.12543 0.7395,-0.40455 0.72881,-0.7426204 -0.01066,-0.37633 -0.27221,-0.66986 -0.80094,-0.7376 a 4.04372,4.04372 0 0 0 -1.20363,0.05332 0.87157,0.87157 0 0 0 -0.63474,0.63724 c -0.02948,0.08216 -0.138,0.19382 -0.21074,0.19444 -1.16974,0.01255 -2.3395,0.0088 -3.54374,0.0088 a 2.61584,2.61584 0 0 1 0.85164,-2.1387708 4.15665,4.15665 0 0 1 2.12061,-0.9358004 12.129,12.129 0 0 1 4.69969,0.0075 2.83943,2.83943 0 0 1 2.61524,3.0471812 q -0.0059,0.07756 -0.01607,0.1547104 c 0.01693,1.7662304 0.01129,3.533093 0.0056,5.299323 a 1.3895,1.3895 0 0 0 0.41772,1.13463 c 0.05703,0.04453 0.07146,0.14237 0.11975,0.24962 z M 20.89685,9.5862648 c -0.67425,0.165589 -1.309,0.316749 -1.9406,0.4798192 a 2.75926,2.75926 0 0 0 -0.525,0.196952 0.91809,0.91809 0 0 0 -0.53438,0.91321 0.82394,0.82394 0 0 0 0.69307,0.71628 1.74792,1.74792 0 0 0 1.75619,-0.36441 2.41792,2.41792 0 0 0 0.55072,-1.9418512 z"
     id="path8"
     inkscape:connector-curvature="0" />
  <path
     d="m 39.0214,7.0491826 h -3.43775 c -0.05017,0 -0.10035,-0.0094 -0.1819,-0.01757 a 2.61594,2.61594 0 0 1 1.03617,-2.2711308 4.932,4.932 0 0 1 2.44612,-0.8780904 12.6055,12.6055 0 0 1 4.29829,0.11729 4.6807,4.6807 0 0 1 1.00354,0.3443504 2.65982,2.65982 0 0 1 1.46894,2.6016608 c 0.032,1.7762608 0.02011,3.5531534 0.01819,5.3313134 a 1.59571,1.59571 0 0 0 0.50177,1.41373 0.15869,0.15869 0 0 1 0.03952,0.08154 0.295,0.295 0 0 1 -0.0075,0.08714 h -4.01417 c -0.06272,-0.308 -0.12544,-0.62722 -0.1982,-1.00355 -0.12543,0.10036 -0.22265,0.17186 -0.31359,0.24712 a 4.66137,4.66137 0 0 1 -2.73088,1.03993 5.22864,5.22864 0 0 1 -2.45744,-0.31355 2.6559,2.6559 0 0 1 -1.711,-2.57158 2.63045,2.63045 0 0 1 1.5486,-2.6135926 8.27706,8.27706 0 0 1 2.47372,-0.6347404 c 0.70185,-0.09972 1.4037,-0.19945 2.10179,-0.32051 a 1.63509,1.63509 0 0 0 0.54818,-0.22014 0.65055,0.65055 0 0 0 0.04454,-1.1214604 1.97954,1.97954 0 0 0 -1.9914,0.01442 3.91511,3.91511 0 0 0 -0.48551,0.68742 z m 2.75974,2.5345722 c -0.735,0.188169 -1.46141,0.365669 -2.17957,0.5682512 a 1.35722,1.35722 0 0 0 -0.51181,0.28852 0.82874,0.82874 0 0 0 0.06272,1.30022 1.741,1.741 0 0 0 2.38658,-0.60547 q 0.01784,-0.03 0.03446,-0.06063 a 2.74679,2.74679 0 0 0 0.207,-1.4908912 z"
     id="path10"
     inkscape:connector-curvature="0" />
  <path
     d="m 59.77272,14.177466 a 6.923,6.923 0 0 1 -3.54626,-0.7376 4.48284,4.48284 0 0 1 -2.39469,-3.7005622 6.20252,6.20252 0 0 1 0.28413,-2.7170812 4.51558,4.51558 0 0 1 3.15745,-2.9630012 7.23115,7.23115 0 0 1 4.43439,0.07277 4.69548,4.69548 0 0 1 3.26777,4.443801 6.12981,6.12981 0 0 1 -0.46288,2.7227226 4.66936,4.66936 0 0 1 -3.53435,2.702 c -0.39583,0.08788 -0.80288,0.12049 -1.20556,0.176951 z m -2.0836,-5.2585526 a 3.84063,3.84063 0 0 0 0.38386,1.8477626 1.42812,1.42812 0 0 0 1.326,0.7928 1.36373,1.36373 0 0 0 1.34349,-0.858 A 4.25,4.25 0 0 0 60.7594,7.298873 1.36088,1.36088 0 0 0 59.46731,6.3718726 1.423,1.423 0 0 0 58.0291,7.284523 6.87392,6.87392 0 0 0 57.68912,8.9189134 Z"
     id="path12"
     inkscape:connector-curvature="0" />
  <path
     d="m 107.51486,6.8553826 c -1.15407,0 -2.258,0.0031 -3.36625,-0.0082 -0.0671,0 -0.16621,-0.10224 -0.19443,-0.17751 a 1.38925,1.38925 0 0 0 -2.0491,-0.55071 0.51872,0.51872 0 0 0 0.0853,0.90695 6.36713,6.36713 0 0 0 1.20612,0.4140004 c 0.76457,0.20443 1.54044,0.36567 2.30313,0.577 a 5.50786,5.50786 0 0 1 0.95023,0.3976704 2.76915,2.76915 0 0 1 0.46351,4.5786526 5.11694,5.11694 0 0 1 -2.54523,1.0393 9.4165,9.4165 0 0 1 -4.06434,-0.165 3.30418,3.30418 0 0 1 -2.53142,-2.39408 c -0.03889,-0.15052 -0.06273,-0.30607 -0.08655,-0.46037 a 0.81858,0.81858 0 0 1 0.01006,-0.1637 h 3.63782 a 1.48126,1.48126 0 0 0 2.03343,1.1133 0.81819,0.81819 0 0 0 0.65168,-0.74889 0.672,0.672 0 0 0 -0.5576,-0.70311 c -0.68993,-0.20509 -1.39745,-0.33241 -2.08925,-0.5230922 a 13.56546,13.56546 0 0 1 -1.84274,-0.58456 2.73491,2.73491 0 0 1 -0.43466,-4.676502 5.291,5.291 0 0 1 2.44607,-0.8850004 8.44264,8.44264 0 0 1 3.89311,0.3387004 2.89555,2.89555 0 0 1 2.04284,2.3207208 c 0.0138,0.1035 0.0207,0.207 0.0383,0.35438 z"
     id="path14"
     inkscape:connector-curvature="0" />
  <path
     d="m 96.17236,10.083644 a 4.15846,4.15846 0 0 1 -1.09511,2.554642 4.75244,4.75244 0 0 1 -2.80991,1.39116 7.39333,7.39333 0 0 1 -4.29829,-0.39954 4.53456,4.53456 0 0 1 -2.84,-4.0568112 5.417,5.417 0 0 1 0.85427,-3.6108226 4.87728,4.87728 0 0 1 3.25461,-2.0428208 7.08643,7.08643 0 0 1 4.75113,0.5889404 3.89769,3.89769 0 0 1 2.08925,2.9892812 1.85733,1.85733 0 0 1 0,0.27347 h -3.82917 a 4.46184,4.46184 0 0 0 -0.42462,-0.8893904 1.47395,1.47395 0 0 0 -2.411,0.2314504 3.684,3.684 0 0 0 -0.37633,1.2444204 3.95987,3.95987 0 0 0 0.26342,2.3006226 1.575,1.575 0 0 0 2.03595,0.79153 1.52625,1.52625 0 0 0 0.88687,-1.139 c 0.02384,-0.08656 0.12545,-0.216392 0.18817,-0.217652 1.24563,-0.01261 2.48499,-0.0095 3.76076,-0.0095 z"
     id="path16"
     inkscape:connector-curvature="0" />
  <path
     d="m 31.50991,6.2777226 c -0.0088,0.14489 -0.01945,0.23645 -0.01945,0.328 0,1.0863304 -0.0038,2.1732908 0,3.2615012 0.0031,0.9897322 0.22956,1.2174222 1.21426,1.2356222 0.6454,0.0119 0.6454,0.0119 0.6454,0.64477 v 2.13249 c -0.46477,0.0232 -0.8988,0.07149 -1.3322,0.06271 a 22.2524,22.2524 0 0 1 -2.58976,-0.12544 1.80129,1.80129 0 0 1 -1.73937,-1.86116 l 0.0026,-0.05372 c -0.06273,-1.24 -0.05585,-2.4837622 -0.07213,-3.7262726 -0.0082,-0.6140004 0,-1.2280708 0,-1.8728508 H 26.2545 V 4.0561414 c 0.36441,0 0.72694,-0.01631 1.08759,0.005 0.26969,0.01564 0.33624,-0.08969 0.33177,-0.34182 -0.01317,-0.7833904 -0.005,-1.5680004 -0.005,-2.3507908 V 1.0060004 h 3.82039 v 0.7081302 c 0,0.6692304 0.01066,1.3378504 -0.005,2.0070808 -0.0056,0.25089 0.059,0.35188 0.32866,0.3412 0.50176,-0.02011 1.00354,-0.0056 1.53038,-0.0056 v 2.2216312 z"
     id="path18"
     inkscape:connector-curvature="0" />
  <path
     d="m 48.04448,0.37251039 h 3.86927 V 13.867006 h -3.86927 z"
     id="path20"
     inkscape:connector-curvature="0" />
  <path
     d="m 79.44586,4.0743214 h 3.826 v 9.7945846 h -3.826 z"
     id="path22"
     inkscape:connector-curvature="0" />
  <path
     d="m 79.44459,0 h 3.821 v 2.703311 h -3.821 z"
     id="path24"
     inkscape:connector-curvature="0" />
</svg>
