<?xml version="1.0" encoding="UTF-8" standalone="no"?>
<svg
   xmlns:dc="http://purl.org/dc/elements/1.1/"
   xmlns:cc="http://creativecommons.org/ns#"
   xmlns:rdf="http://www.w3.org/1999/02/22-rdf-syntax-ns#"
   xmlns:svg="http://www.w3.org/2000/svg"
   xmlns="http://www.w3.org/2000/svg"
   xmlns:sodipodi="http://sodipodi.sourceforge.net/DTD/sodipodi-0.dtd"
   xmlns:inkscape="http://www.inkscape.org/namespaces/inkscape"
   id="logo-layer"
   viewBox="0 0 100.20311 18.093611"
   version="1.1"
   sodipodi:docname="hackolade.svg"
   width="100.20311"
   height="18.093611"
   inkscape:version="0.92.4 (33fec40, 2019-01-16)">
  <metadata
     id="metadata37">
    <rdf:RDF>
      <cc:Work
         rdf:about="">
        <dc:format>image/svg+xml</dc:format>
        <dc:type
           rdf:resource="http://purl.org/dc/dcmitype/StillImage" />
        <dc:title>colorArtboard 12 copy 3</dc:title>
      </cc:Work>
    </rdf:RDF>
  </metadata>
  <defs
     id="defs35" />
  <sodipodi:namedview
     pagecolor="#ffffff"
     bordercolor="#666666"
     borderopacity="1"
     objecttolerance="10"
     gridtolerance="10"
     guidetolerance="10"
     inkscape:pageopacity="0"
     inkscape:pageshadow="2"
     inkscape:window-width="998"
     inkscape:window-height="605"
     id="namedview33"
     showgrid="false"
     inkscape:zoom="4.8268156"
     inkscape:cx="59.713855"
     inkscape:cy="4.4583346"
     inkscape:window-x="282"
     inkscape:window-y="183"
     inkscape:window-maximized="0"
     inkscape:current-layer="logo-layer" />
  <title
     id="title2">colorArtboard 12 copy 3</title>
  <path
     d="m 0.13804,18.09361 v -7.20013 a 0.29,0.29 0 0 1 0.04113,-0.13852 c 0.01229,-0.02033 0.05721,-0.02127 0.09124,-0.03262 a 1.9484,1.9484 0 0 1 0.17587,-0.23638 q 0.86894,-0.8765002 1.744,-1.7463702 c 0.55171,-0.55029 1.10579,-1.09822 1.657,-1.64946 q 0.92615,-0.92661 1.84755,-1.85889 a 0.408,0.408 0 0 1 0.31958,-0.13238 q 2.32125,0.0071 4.6425,0.0033 h 2.53636 z"
     id="path4"
     inkscape:connector-curvature="0" />
  <path
     d="M 10.01872,0.05736002 0.33329,9.55415 0.27987,9.48135 C 0.28271,9.6704498 0.13048,9.7441998 0.00378,9.8789398 V 4.06825 C 0.00378,3.70281 4.7e-4,3.33736 4.7e-4,2.97192 4.7e-4,2.49916 0.00472,2.0264 0.00472,1.556 0.00472,1.09175 0.00141,0.62750002 0,0.16373002 c 0,-0.15838 0.02032,-0.17492 0.18012,-0.15885 a 0.7371,0.7371 0 0 0 0.38624,0.008 c 0.05059,-0.0208 0.12717,0.03171 0.18911,0.02982 0.1267,-0.00426 0.25245,-0.03309 0.3782,-0.03309 0.12575,0 0.26664,0.02316 0.4,0.03262 0.03451,0 0.06949,-0.00993 0.104,-0.01088 0.04349,0 0.08651,0 0.13,0.00426 0.01135,0 0.02222,0.0104 0.03357,0.00993 0.139,-0.00662 0.27846,-0.01466 0.41792,-0.02128 0.02222,0 0.04728,0.00378 0.0676,0.00284 0.07612,-0.00331 0.15176,-0.008 0.22835,-0.01087 a 0.448,0.448 0 0 1 0.09077,0.0033 c 0.02269,0.00379 0.04444,0.02364 0.06571,0.0227 0.13852,-0.00757 0.277,-0.01986 0.416,-0.0279 a 0.39349,0.39349 0 0 1 0.09077,0.008 c 0.02269,0.00426 0.04728,0.02553 0.06571,0.0208 a 1.41339,1.41339 0 0 1 0.33708,-0.00705 c 0.07517,0 0.1475,-0.03829 0.21983,0.01135 H 3.8128 c 0.131,-0.00851 0.26238,-0.01986 0.39334,-0.02506 0.04964,0 0.09928,0.018 0.14892,0.01749 0.156,0 0.31155,-0.01229 0.46756,-0.01276 0.13048,0 0.261,0.009 0.39144,0.01371 h 0.09455 l 0.17351,-0.00284 h 0.10542 l 0.18485,0.00331 0.01135,0.0028 c 0.13852,-0.009 0.277,-0.01939 0.41555,-0.02789 a 0.4075,0.4075 0 0 1 0.08983,0.00472 c 0.02222,0.00378 0.04727,0.026 0.06477,0.0208 a 1.10133,1.10133 0 0 1 0.36306,-0.00421 c 0.16878,0.008 0.33661,-0.02317 0.50869,0 a 2.12457,2.12457 0 0 0 0.41415,-0.02837 0.22711,0.22711 0 0 1 0.069,0.0071 c 0.02222,0.00567 0.0435,0.026 0.06477,0.02505 0.13805,-0.00614 0.27562,-0.01749 0.41367,-0.02505 a 0.40894,0.40894 0 0 1 0.08982,0.00756 c 0.01846,0.00329 0.03595,0.02129 0.05344,0.02029 0.14183,-0.00611 0.27846,-0.017 0.41792,-0.02171 0.04728,0 0.09124,0.01749 0.1371,0.01749 0.156,0 0.312,-0.009 0.468,-0.009 0.13427,0 0.26853,0.009 0.4028,0.0104 0.04065,0 0.08178,-0.01513 0.12291,-0.01891 0.04113,-0.00378 0.08132,0 0.12245,0 z"
     id="path6"
     inkscape:connector-curvature="0" />
  <path
     d="m 90.62047,17.58161 a 5.94165,5.94165 0 0 0 -0.65714,0.0057 c -0.21227,0.02412 -0.28366,-0.06949 -0.3437,-0.24867 -0.078,-0.242 -0.1839,-0.47512 -0.27893,-0.71481 -0.16121,0.10022 -0.31249,0.20423 -0.47276,0.29122 a 4.84412,4.84412 0 0 1 -0.45669,0.208 c -0.36166,0.148 -0.72332,0.29737 -1.08734,0.43305 -0.13521,0.05059 -0.28366,0.06 -0.42549,0.09739 -0.14183,0.03739 -0.26521,0.09833 -0.40232,0.12245 a 2.71037,2.71037 0 0 1 -1.46555,-0.05532 6.54344,6.54344 0 0 1 -1.02494,-0.49545 1.56693,1.56693 0 0 1 -0.625,-0.78053 c -0.18248,-0.45054 -0.34464,-0.90959 -0.4997,-1.371 a 2.64166,2.64166 0 0 1 -0.061,-0.44865 c -0.02836,-0.19241 -0.07,-0.38293 -0.09171,-0.57629 a 10.12483,10.12483 0 0 1 0.03924,-2.45838 7.246,7.246 0 0 1 0.48221,-1.7444902 2.35953,2.35953 0 0 1 1.59887,-1.43529 4.2857,4.2857 0 0 1 1.77852,-0.08085 9.17653,9.17653 0 0 1 1.03491,0.17257 c 0.51626,0.12717 1.02447,0.28791 1.536,0.43494 0.04018,0.01135 0.07942,0.02742 0.14561,0.05059 v -0.41934 q 0,-1.0084 0,-2.01632 c 0,-0.373 -0.0066,-0.74649 -0.008,-1.12 V 4.17036 c 0,-0.12717 0.03876,-0.16972 0.174,-0.16735 0.13524,0.00237 0.26239,0.02694 0.39381,0.02836 0.09455,0 0.18911,-0.02411 0.28366,-0.02931 0.10779,-0.0052 0.217,0.00378 0.32478,0 0.08557,-0.0052 0.10779,0.03168 0.10779,0.11015 V 17.58634 Z M 89.27735,12.889 h -0.0042 v -2.71506 c 0,-0.05815 0,-0.09739 -0.07564,-0.11866 A 11.06177,11.06177 0 0 0 87.08753,9.6832198 c -0.39192,-0.02979 -0.78525,-0.05248 -1.17859,-0.05626 a 1.896,1.896 0 0 0 -0.57913,0.07706 1.56468,1.56468 0 0 0 -1.023,1.0485802 4.00614,4.00614 0 0 0 -0.2066,0.8798 c -0.05058,0.47607 -0.06619,0.95687 -0.07942,1.43625 a 7.36012,7.36012 0 0 0 0.12528,1.65466 3.1037,3.1037 0 0 0 0.44534,1.17008 1.3239,1.3239 0 0 0 1.09113,0.6491 6.75162,6.75162 0 0 0 1.19608,-0.08037 9.34179,9.34179 0 0 0 2.30234,-0.70583 0.14183,0.14183 0 0 0 0.09455,-0.15223 z"
     id="path8"
     inkscape:connector-curvature="0" />
  <path
     d="M 13.38666,17.93193 7.35235,11.89526 13.33371,5.9138998 Z"
     id="path10"
     inkscape:connector-curvature="0" />
  <path
     d="M 39.35109,17.8369 H 38.39095 Q 38.2314,17.29795 38.06853,16.74955 c -0.30824,0.14183 -0.60608,0.28082 -0.9077,0.4132 a 9.3063,9.3063 0 0 1 -2.56,0.7843 2.56152,2.56152 0 0 1 -1.47453,-0.20659 2.37889,2.37889 0 0 1 -1.03677,-0.92377 2.10237,2.10237 0 0 1 -0.29878,-1.08215 c 0,-0.40185 -0.01608,-0.80369 0.0062,-1.20459 a 2.746,2.746 0 0 1 0.13615,-0.79613 2.06858,2.06858 0 0 1 1.56909,-1.3781 7.05119,7.05119 0 0 1 1.46981,-0.06618 c 0.69685,-0.0085 1.3937,-0.0024 2.09055,-0.0024 h 1.0604 c 0.0047,-0.07327 0.0137,-0.13851 0.01323,-0.20328 0,-0.39759 0,-0.79471 -0.01229,-1.19183 a 1.22261,1.22261 0 0 0 -0.55554,-1.0400402 1.30615,1.30615 0 0 0 -0.65524,-0.21321 c -0.30588,-0.01513 -0.61459,-0.01939 -0.91952,-0.0095 q -1.23959,0.04018 -2.47774,0.09786 c -0.40893,0.01844 -0.81693,0.05153 -1.22539,0.07706 -0.034,0.0024 -0.06855,0 -0.11062,0 -0.0095,-0.13 -0.01986,-0.2543398 -0.0279,-0.3781998 -0.01134,-0.17256 -0.017,-0.3460702 -0.03262,-0.5200002 -0.008,-0.08888 0.01087,-0.13426 0.10968,-0.15128 0.60277,-0.104 1.20318,-0.22409 1.80736,-0.321 a 15.89842,15.89842 0 0 1 2.29289,-0.16026 5.66383,5.66383 0 0 1 1.02021,0.07327 2.27547,2.27547 0 0 1 1.14549,0.57531 2.90664,2.90664 0 0 1 0.4652,0.5120002 2.10281,2.10281 0 0 1 0.36544,1.12942 c 0.01939,0.6647 0.01939,1.3294 0.02364,1.9941 0.0038,0.5276 0,1.05473 0,1.58233 v 3.566 z m -1.01407,-4.64155 a 0.42244,0.42244 0 0 0 -0.06382,-0.009 q -0.9545,0.06242 -1.90805,0.12576 c -0.43967,0.02836 -0.87981,0.04728 -1.319,0.08368 a 6.65869,6.65869 0 0 0 -0.95639,0.12008 1.03069,1.03069 0 0 0 -0.80369,1.22634 c 0.04728,0.295 0.06477,0.59426 0.11016,0.88878 a 2.18889,2.18889 0 0 0 0.14182,0.6023 0.84769,0.84769 0 0 0 0.81079,0.452 5.7335,5.7335 0 0 0 1.27125,-0.164 13.85188,13.85188 0 0 0 2.60632,-0.76256 0.14562,0.14562 0 0 0 0.10968,-0.15459 c -0.0024,-0.669 0,-1.33791 0,-2.0064 z"
     id="path12"
     inkscape:connector-curvature="0" />
  <path
     d="m 79.56167,16.76185 c -0.50113,0.21794 -0.98334,0.4373 -1.47454,0.63633 -0.25623,0.10354 -0.52665,0.17256 -0.79187,0.252 -0.287,0.086 -0.57156,0.18391 -0.86373,0.244 A 2.93281,2.93281 0 0 1 75.03027,17.89138 2.43427,2.43427 0 0 1 73.8044,17.11794 2.01064,2.01064 0 0 1 73.31178,16.05423 4.30569,4.30569 0 0 1 73.2872,15.51292 c 0,-0.38151 -0.0028,-0.7635 0.0095,-1.14455 a 1.98554,1.98554 0 0 1 0.37821,-1.13462 2.05151,2.05151 0 0 1 1.61636,-0.91479 c 0.64437,-0.02506 1.28969,-0.02411 1.93454,-0.02742 0.77154,-0.0047 1.54308,0 2.31652,0 a 0.85805,0.85805 0 0 0 0.087,-0.0095 v -0.15175 c -0.0047,-0.42076 0.0076,-0.84246 -0.018,-1.26227 A 1.23305,1.23305 0 0 0 78.28471,9.6388398 c -0.7862,-0.01087 -1.57334,0.02175 -2.35907,0.05154 -0.62877,0.02316 -1.25659,0.07138 -1.88489,0.10589 -0.11725,0.0066 -0.23638,0 -0.37017,0 -0.0208,-0.3228898 -0.04208,-0.65855 -0.06524,-1.01548 0.32573,-0.06619 0.64532,-0.148 0.9701,-0.19478 0.66187,-0.09455 1.327,-0.2 1.99457,-0.24867 a 17.19343,17.19343 0 0 1 1.98039,-0.03357 2.45844,2.45844 0 0 1 1.597,0.75642 2.48538,2.48538 0 0 1 0.68692,1.9647902 c -0.0042,0.21132 0,0.42548 0,0.63491 v 3.03843 c 0,0.29831 -0.0042,0.5971 -0.0061,0.89588 0,0.18438 0,0.36875 -0.0028,0.5536 v 1.49581 c 0,0.19856 -0.0042,0.19856 -0.20423,0.19856 -0.21274,0 -0.42548,-0.0057 -0.63775,0 -0.0903,0.0033 -0.10874,-0.03923 -0.12953,-0.11109 -0.09454,-0.32392 -0.19382,-0.6487 -0.29215,-0.96923 z m 0.19194,-3.56981 c -0.03593,0 -0.05531,-0.0047 -0.07375,-0.0038 -0.65572,0.044 -1.311,0.08935 -1.96621,0.13237 -0.53422,0.035 -1.068,0.07 -1.60265,0.1007 a 1.75014,1.75014 0 0 0 -1.06844,0.33376 0.9839,0.9839 0 0 0 -0.33613,0.91905 c 0.0331,0.356 0.08131,0.70914 0.12244,1.0656 a 1.07909,1.07909 0 0 0 0.17114,0.55644 0.9518,0.9518 0 0 0 0.30777,0.30918 1.3303,1.3303 0 0 0 0.503,0.0799 4.9833,4.9833 0 0 0 1.13178,-0.14183 14.35537,14.35537 0 0 0 2.70135,-0.78052 0.15687,0.15687 0 0 0 0.11157,-0.17445 c -0.0038,-0.48458 0,-0.96869 0,-1.45279 z"
     id="path14"
     inkscape:connector-curvature="0" />
  <path
     d="m 93.77566,13.7012 c 0.02411,0.37821 0.04161,0.73845 0.07186,1.09728 a 2.82328,2.82328 0 0 0 0.19289,0.84624 1.29237,1.29237 0 0 0 1.20412,0.82307 c 0.51341,0.03168 1.03014,0.02316 1.545,0.01891 0.555,-0.0047 1.11,-0.01371 1.66364,-0.04255 0.50632,-0.02695 1.01123,-0.0832 1.51662,-0.12623 l 0.0979,-0.0099 v 0.97956 c -0.52712,0.09455 -1.05284,0.21274 -1.58422,0.28365 -0.61459,0.08226 -1.23391,0.14183 -1.85321,0.17918 a 8.38951,8.38951 0 0 1 -2.02483,-0.0539 2.29807,2.29807 0 0 1 -0.95829,-0.36875 2.22977,2.22977 0 0 1 -0.79707,-1.16488 5.43675,5.43675 0 0 1 -0.25954,-1.6244 c -0.0104,-0.94836 -0.0052,-1.89719 0.02931,-2.8446 a 7.34343,7.34343 0 0 1 0.1858,-1.292 2.37648,2.37648 0 0 1 0.963,-1.4778402 2.91018,2.91018 0 0 1 1.41118,-0.51342 17.88616,17.88616 0 0 1 2.6295,-0.04728 2.91738,2.91738 0 0 1 1.09443,0.303 3.37774,3.37774 0 0 1 0.52,0.269 1.4444,1.4444 0 0 1 0.48884,0.73278 5.23424,5.23424 0 0 1 0.27183,2.1614602 2.21583,2.21583 0 0 1 -0.14183,0.65335 1.75319,1.75319 0 0 1 -1.2859,1.09444 6.80519,6.80519 0 0 1 -1.75914,0.1215 c -0.70914,0.0028 -1.41828,0 -2.12742,0 z m 0.0799,-1.03629 a 0.61023,0.61023 0 0 0 0.08226,0.01229 c 0.287,0 0.5744,-0.0043 0.86136,-0.0047 1.04007,0 2.07731,0.0061 3.11549,-0.0076 a 1.42809,1.42809 0 0 0 0.57629,-0.139 0.89642,0.89642 0 0 0 0.44062,-0.94221 6.81562,6.81562 0 0 0 -0.10969,-0.91054 0.82962,0.82962 0 0 0 -0.70914,-0.7730002 c -0.30161,-0.04964 -0.60418,-0.105 -0.90864,-0.12575 a 9.66122,9.66122 0 0 0 -2.04705,0.07328 1.45229,1.45229 0 0 0 -1.24811,1.1559402 3.877,3.877 0 0 0 -0.08462,1.2878 c 0.0085,0.12481 0.02035,0.24914 0.03123,0.37348 z"
     id="path16"
     inkscape:connector-curvature="0" />
  <path
     d="m 50.30872,4.13916 h 1.27975 v 7.69559 c 0.23638,0 0.46047,0.0024 0.68314,-0.0028 0.03309,0 0.06949,-0.03357 0.09739,-0.05862 0.19714,-0.1806 0.39287,-0.36308 0.58906,-0.5451 l 0.56731,-0.52712 1.9941,-1.8494402 a 0.67731,0.67731 0 0 0 0.09455,-0.08557 0.63718,0.63718 0 0 1 0.6075,-0.23874 c 0.46378,0.01655 0.9285,0.0047 1.41166,0.02931 l -4.16785,3.9187002 4.19575,5.29491 c -0.06335,0.0043 -0.1007,0.0085 -0.13852,0.0085 -0.46378,0 -0.928,0 -1.39228,-0.0066 A 0.17111,0.17111 0 0 1 56.01446,17.7154 q -0.37821,-0.46047 -0.74933,-0.92708 c -0.53185,-0.67368 -1.08356,-1.33124 -1.61118,-2.00824 -0.14183,-0.18295 -0.295,-0.35835 -0.44108,-0.53894 -0.287,-0.355 -0.57583,-0.70914 -0.85664,-1.06938 -0.0624,-0.0799 -0.14183,-0.06335 -0.21227,-0.06666 -0.17634,-0.0076 -0.35362,-0.0024 -0.54935,-0.0024 v 4.608 h -1.28352 z"
     id="path18"
     inkscape:connector-curvature="0" />
  <path
     d="m 58.39763,13.39008 a 10.4154,10.4154 0 0 1 0.22173,-2.49759 3.71044,3.71044 0 0 1 0.42123,-1.0958502 2.19549,2.19549 0 0 1 0.66895,-0.6978 3.38,3.38 0 0 1 1.48589,-0.51576 9.97544,9.97544 0 0 1 1.01643,-0.0988 12.58683,12.58683 0 0 1 1.40079,0.05153 3.87938,3.87938 0 0 1 1.42348,0.39192 2.403,2.403 0 0 1 1.07647,1.1209102 5.39046,5.39046 0 0 1 0.51106,2.11607 c 0.03262,0.60419 0.03876,1.21121 0.01938,1.81587 a 6.26516,6.26516 0 0 1 -0.32336,1.8518 3.46194,3.46194 0 0 1 -0.43541,0.886 2.14567,2.14567 0 0 1 -1.01691,0.71576 5.05791,5.05791 0 0 1 -1.44664,0.3073 9.692,9.692 0 0 1 -2.01443,-0.02128 3.80607,3.80607 0 0 1 -1.50621,-0.43777 2.04192,2.04192 0 0 1 -0.65147,-0.538 3.78192,3.78192 0 0 1 -0.57818,-1.24241 8.39626,8.39626 0 0 1 -0.2728,-2.1119 z m 4.04683,3.05781 a 9.72454,9.72454 0 0 0 1.172,-0.07847 1.83608,1.83608 0 0 0 1.42868,-1.04008 4.58516,4.58516 0 0 0 0.33093,-1.77426 13.98912,13.98912 0 0 0 -0.0903,-2.15626 1.97765,1.97765 0 0 0 -0.72521,-1.4126102 1.50954,1.50954 0 0 0 -0.87035,-0.32715 c -0.459,-0.02505 -0.91952,-0.02789 -1.37952,-0.03782 a 3.44078,3.44078 0 0 0 -1.36344,0.2274 1.71629,1.71629 0 0 0 -1.17622,1.3005602 12.43746,12.43746 0 0 0 -0.2014,1.45705 7.97949,7.97949 0 0 0 0.10968,2.13924 2.2625,2.2625 0 0 0 0.34559,0.90722 1.8671,1.8671 0 0 0 1.27314,0.71434 10.98116,10.98116 0 0 0 1.14645,0.08084 z"
     id="path20"
     inkscape:connector-curvature="0" />
  <path
     d="m 48.41437,9.9460798 c -0.32478,-0.01276 -0.63491,-0.02411 -0.94552,-0.03782 -1.13462,-0.04964 -2.27255,-0.11063 -3.411,-0.0851 a 1.25137,1.25137 0 0 0 -1.20365,0.7602002 3.45223,3.45223 0 0 0 -0.217,0.80369 12.32878,12.32878 0 0 0 -0.08651,2.61058 5.97962,5.97962 0 0 0 0.242,1.54167 1.32721,1.32721 0 0 0 1.27645,1.00651 c 0.53,0.01654 1.06182,-0.0038 1.59273,-0.0175 0.42076,-0.01087 0.84151,-0.03214 1.2618,-0.05625 0.44344,-0.02506 0.88642,-0.0591 1.32987,-0.08888 0.06666,-0.0047 0.13332,-0.008 0.22314,-0.01324 v 0.31769 c 0,0.18107 -0.0042,0.36261 0,0.5432 0.0028,0.08132 -0.03073,0.10969 -0.10353,0.12387 -0.51578,0.10259 -1.02825,0.22267 -1.54687,0.30824 a 13.66306,13.66306 0 0 1 -2.79873,0.16641 2.36031,2.36031 0 0 1 -1.3236,-0.39427 3.151,3.151 0 0 1 -1.15212,-1.52844 5.79828,5.79828 0 0 1 -0.287,-1.73739 c -0.01512,-0.37821 -0.02269,-0.75641 -0.018,-1.13462 A 10.84763,10.84763 0 0 1 41.45295,11.11333 4.03435,4.03435 0 0 1 41.95881,9.7758998 2.60334,2.60334 0 0 1 42.43866,9.18211 2.08666,2.08666 0 0 1 43.5,8.6913898 a 8.80119,8.80119 0 0 1 2.5652,-0.01182 c 0.7479,0.09455 1.49108,0.22881 2.23615,0.34464 0.06146,0.0095 0.11441,0.01891 0.11394,0.10117 -0.0023,0.2685102 -9.2e-4,0.53514 -9.2e-4,0.8207 z"
     id="path22"
     inkscape:connector-curvature="0" />
  <path
     d="m 72.49344,17.6946 c -0.64957,0 -1.27645,0.04208 -1.89908,-0.0099 A 1.92763,1.92763 0 0 1 68.82388,16.18889 6.42992,6.42992 0 0 1 68.6187,14.15603 c 0.0066,-0.70914 0,-1.41828 0,-2.12742 V 4.13916 h 1.28969 v 0.52 q 0,1.9543798 -0.0038,3.9092498 0,1.5643702 0.0038,3.1296702 c 0,0.96821 -0.0028,1.93831 0,2.90511 a 3.133,3.133 0 0 0 0.14561,1.09443 1.10607,1.10607 0 0 0 0.81551,0.71482 c 0.5172,0.1319 1.03487,0.26332 1.55113,0.39853 a 0.10805,0.10805 0 0 1 0.06807,0.07186 c 0.0066,0.27141 0.0047,0.54608 0.0047,0.81177 z"
     id="path24"
     inkscape:connector-curvature="0" />
  <path
     d="m 26.28544,17.9272 c 0,-0.35079 -0.0047,-0.669 0.0038,-0.98712 0,-0.07375 0.06382,-0.11914 0.15128,-0.12481 a 1.38,1.38 0 0 0 0.72427,-0.25529 0.95113,0.95113 0 0 0 0.3905,-0.71151 c 0.02647,-0.26143 0.026,-0.52618 0.02695,-0.7895 0.0038,-0.99989 0,-2.00025 0.0071,-3.00061 a 0.85834,0.85834 0 0 1 0.63775,-0.851 3.13264,3.13264 0 0 0 0.41792,-0.15837 c -0.0728,-0.02033 -0.14513,-0.04255 -0.21888,-0.061 a 1.23437,1.23437 0 0 1 -0.704,-0.46661 1.05,1.05 0 0 1 -0.20612,-0.6528802 v -2.76419 a 1.50837,1.50837 0 0 0 -0.2487,-0.96112 0.97551,0.97551 0 0 0 -0.69307,-0.37821 c -0.10873,-0.01418 -0.21841,-0.02174 -0.34748,-0.034 v -0.21467 c 0,-0.23638 0,-0.47276 -0.0038,-0.7091398 0,-0.06429 0.02128,-0.09077 0.08935,-0.08935 a 2.35952,2.35952 0 0 1 1.91515,0.9341698 2.05887,2.05887 0 0 1 0.434,1.22918 c 0.01324,0.73183 0.0033,1.46555 0.0057,2.196 0,0.3186402 0,0.63775 0.01512,0.9559202 a 0.46786,0.46786 0 0 0 0.35646,0.43494 c 0.14183,0.04444 0.28366,0.0988 0.42549,0.13237 a 1.16575,1.16575 0 0 0 0.27893,0.01276 c 0.07186,0 0.09691,0.02553 0.09455,0.09456 -0.0028,0.26758 0,0.53516 0,0.80369 0,0.07848 -0.02648,0.11819 -0.11063,0.11062 -0.06949,-0.0061 -0.14183,-0.008 -0.2099,-0.01087 a 0.104,0.104 0 0 0 -0.0383,0.0047 1.41763,1.41763 0 0 1 -0.21179,0.07989 0.66188,0.66188 0 0 0 -0.53375,0.64863 v 3.39016 a 2.21816,2.21816 0 0 1 -0.53185,1.47737 1.94351,1.94351 0 0 1 -1.17528,0.62452 c -0.23445,0.04488 -0.47887,0.06001 -0.74077,0.09074 z"
     id="path26"
     inkscape:connector-curvature="0" />
  <path
     d="m 17.81642,11.43054 v -0.89163 c 0.14183,0 0.27325,-0.0061 0.40562,0 a 0.90235,0.90235 0 0 0 0.6543,-0.277 0.35784,0.35784 0 0 0 0.09456,-0.24252 c 0.0076,-0.68125 0,-1.3625002 0.0057,-2.0432702 0.0028,-0.43683 -0.0057,-0.87508 0.02884,-1.30954 a 1.91457,1.91457 0 0 1 0.99515,-1.55633 2.53518,2.53518 0 0 1 1.3521,-0.3309298 v 1.0282098 a 2.00638,2.00638 0 0 0 -0.9181,0.25529 c -0.02553,0.0104 -0.0364,0.05342 -0.05768,0.078 a 1.45846,1.45846 0 0 0 -0.30824,0.96963 c -0.01182,0.93322 -0.0085,1.86645 -0.0047,2.79968 a 1.19245,1.19245 0 0 1 -1.11,1.1819002 c -0.01512,0.0028 -0.03262,-0.0066 -0.05625,0.01465 0.05342,0.01513 0.10684,0.03215 0.16121,0.04728 a 1.22008,1.22008 0 0 1 0.86184,0.6004 1.05241,1.05241 0 0 1 0.13568,0.4548 c 0.01135,0.95639 0,1.91326 0.0057,2.87012 0,0.3333 0.02033,0.66754 0.04728,1.00036 a 0.70787,0.70787 0 0 0 0.225,0.43021 1.272,1.272 0 0 0 0.92661,0.3697 c 0.15365,0.0043 0.15743,0.01419 0.15459,0.16121 -0.0042,0.23071 0,0.46142 0,0.69213 0,0.05058 0.0099,0.1092 -0.07,0.10826 A 2.7655,2.7655 0 0 1 19.70089,17.39061 1.81078,1.81078 0 0 1 18.97615,16.221 8.63724,8.63724 0 0 1 18.91706,14.67791 c -0.0076,-0.53091 0,-1.06229 0,-1.59367 0,-0.303 -0.008,-0.60655 0,-0.90959 a 0.55773,0.55773 0 0 0 -0.21945,-0.45952 1.11482,1.11482 0 0 0 -0.79046,-0.28366 c -0.02927,1e-5 -0.05575,-9.3e-4 -0.09073,-9.3e-4 z"
     id="path28"
     inkscape:connector-curvature="0" />
  <path
     d="m 25.82307,11.13601 v 0.99752 h -3.93005 v -0.99752 z"
     id="path30"
     inkscape:connector-curvature="0" />
</svg>
