<?xml version="1.0" encoding="UTF-8" standalone="no"?>
<svg
   xmlns:dc="http://purl.org/dc/elements/1.1/"
   xmlns:cc="http://creativecommons.org/ns#"
   xmlns:rdf="http://www.w3.org/1999/02/22-rdf-syntax-ns#"
   xmlns:svg="http://www.w3.org/2000/svg"
   xmlns="http://www.w3.org/2000/svg"
   xmlns:sodipodi="http://sodipodi.sourceforge.net/DTD/sodipodi-0.dtd"
   xmlns:inkscape="http://www.inkscape.org/namespaces/inkscape"
   id="logo-layer"
   viewBox="0 0 128.94013 17.526629"
   version="1.1"
   sodipodi:docname="hummingbird.svg"
   width="128.94012"
   height="17.526628"
   inkscape:version="0.92.4 (33fec40, 2019-01-16)">
  <metadata
     id="metadata53">
    <rdf:RDF>
      <cc:Work
         rdf:about="">
        <dc:format>image/svg+xml</dc:format>
        <dc:type
           rdf:resource="http://purl.org/dc/dcmitype/StillImage" />
        <dc:title>fontArtboard 6 copy</dc:title>
      </cc:Work>
    </rdf:RDF>
  </metadata>
  <defs
     id="defs51" />
  <sodipodi:namedview
     pagecolor="#ffffff"
     bordercolor="#666666"
     borderopacity="1"
     objecttolerance="10"
     gridtolerance="10"
     guidetolerance="10"
     inkscape:pageopacity="0"
     inkscape:pageshadow="2"
     inkscape:window-width="652"
     inkscape:window-height="480"
     id="namedview49"
     showgrid="false"
     inkscape:zoom="3.4007711"
     inkscape:cx="71.454384"
     inkscape:cy="16.479272"
     inkscape:window-x="372"
     inkscape:window-y="279"
     inkscape:window-maximized="0"
     inkscape:current-layer="logo-layer" />
  <title
     id="title2">fontArtboard 6 copy</title>
  <g
     id="Artboard-9-Copy-3"
     transform="translate(3.1650082e-7,-14.302462)">
    <g
       id="Page-1-Copy">
      <g
         id="Desktop-HD-Copy">
        <g
           id="Group-3">
          <path
             id="Combined-Shape"
             d="m 12.9663,19.48857 a 1.37669,1.37669 0 0 1 -0.50446,-0.08309 1.86588,1.86588 0 0 1 -0.4345,-0.17463 0.25389,0.25389 0 0 0 -0.04081,-0.02347 2.803,2.803 0 0 0 -1.34976,-0.2608 2.83853,2.83853 0 0 0 -1.55924,0.4616 C 8.90614,19.53973 8.74213,19.67976 8.58395,19.8267 A 1.30438,1.30438 0 0 1 6.94814,19.69476 C 5.02707,17.723 2.25837,15.04721 0.5631,14.35211 A 0.38254,0.38254 0 0 0 0.31048,14.30788 c -0.65253,0.20426 -0.20831,2.663 0.69879,4.44368 1.79748,3.52894 3.293,4.95567 5.22066,4.83373 l 0.04664,-0.0096 a 2.09712,2.09712 0 0 0 0.46132,-0.14771 1.25249,1.25249 0 0 0 0.267,-0.16387 1.99618,1.99618 0 0 0 0.24019,-0.24465 2.30625,2.30625 0 0 0 0.405,-0.75818 0.10347,0.10347 0 0 1 0.00467,0.02847 L 7.65863,22.2659 a 1.61166,1.61166 0 0 1 0.042,0.1581 1.552,1.552 0 0 1 0.02293,0.45544 1.59538,1.59538 0 0 1 -0.22736,0.68317 1.81532,1.81532 0 0 1 -0.68868,0.65048 1.39329,1.39329 0 0 1 -0.44033,0.15925 6.8595,6.8595 0 0 0 0.17372,2.25954 13.8105,13.8105 0 0 0 1.28525,-0.86166 q 0.45239,-0.33811 0.88261,-0.722 a 12.55328,12.55328 0 0 0 3.07612,-3.71935 c 0.01749,-0.04039 0.03692,-0.07809 0.05791,-0.11732 a 1.84957,1.84957 0 0 1 0.328,-0.43545 2.20565,2.20565 0 0 1 0.72832,-0.44967 c 1.01669,-0.41968 5.56111,-0.27927 5.579,-0.38967 C 18.529,19.61705 13.81744,19.46318 12.9663,19.48857 Z M 7.98966,26.5492 c -0.01788,0.01385 -0.02954,0.03 -0.04975,0.04309 a 1.68424,1.68424 0 0 1 -0.82743,0.265 1.75715,1.75715 0 0 1 -0.4516,-0.04423 c -0.03265,-0.0073 -0.06063,-0.01462 -0.0855,-0.02116 0.04508,0.15618 0.15973,0.51507 0.19743,0.62317 0.05363,0.14771 0.11037,0.29273 0.16945,0.43775 l 0.00155,0.0042 a 14.37943,14.37943 0 0 0 2.4473,3.97207 2.39183,2.39183 0 0 1 0.452,-0.97282 5.75682,5.75682 0 0 1 -0.888,-0.52431 2.75,2.75 0 0 0 1.69643,-0.14655 l 0.0023,-7.7e-4 a 1.671,1.671 0 0 1 0.173,-0.0804 2.71393,2.71393 0 0 0 1.02641,-0.91128 2.66592,2.66592 0 0 0 0.31985,-0.65624 6.88985,6.88985 0 0 1 -4.18347,-1.98755 z"
             style="fill:#231f20"
             inkscape:connector-curvature="0" />
        </g>
      </g>
    </g>
    <g
       id="HUMMINGBIRD-TRADING-Copy"
       style="isolation:isolate">
      <g
         style="isolation:isolate"
         id="g44">
        <path
           d="M 27.81415,21.17026 V 27.433 h -0.89454 v -2.791 h -3.59667 v 2.791 H 22.4284 v -6.2627 h 0.89454 v 2.69336 h 3.59667 v -2.6934 z"
           style="fill:#34343b"
           id="path8"
           inkscape:connector-curvature="0" />
        <path
           d="m 29.85419,26.78843 a 2.82462,2.82462 0 0 1 -0.69825,-2.05762 v -3.56055 h 0.89453 v 3.52539 q 0,2.0127 1.7627,2.0127 a 1.69878,1.69878 0 0 0 1.31543,-0.49707 2.18035,2.18035 0 0 0 0.45605,-1.51563 v -3.52539 h 0.86817 v 3.56055 a 2.82715,2.82715 0 0 1 -0.69824,2.0625 3.02236,3.02236 0 0 1 -3.90039,-0.0049 z"
           style="fill:#34343b"
           id="path10"
           inkscape:connector-curvature="0" />
        <path
           d="m 41.61,27.433 -0.0088,-4.5625 -2.26368,3.80175 H 38.92543 L 36.6618,22.89682 V 27.433 h -0.8584 v -6.2627 h 0.7334 l 2.61231,4.40137 2.57715,-4.40137 h 0.73339 l 0.0088,6.2627 z"
           style="fill:#34343b"
           id="path12"
           inkscape:connector-curvature="0" />
        <path
           d="m 49.67157,27.433 -0.0088,-4.5625 -2.26367,3.80175 H 46.987 L 44.72333,22.89686 V 27.433 h -0.8584 v -6.2627 h 0.7334 l 2.6123,4.40137 2.57715,-4.40137 h 0.7334 L 50.53,27.433 Z"
           style="fill:#34343b"
           id="path14"
           inkscape:connector-curvature="0" />
        <path
           d="M 51.92547,21.17026 H 52.82 V 27.433 h -0.89454 z"
           style="fill:#34343b"
           id="path16"
           inkscape:connector-curvature="0" />
        <path
           d="M 59.60223,21.17026 V 27.433 h -0.7334 L 55.111,22.763 v 4.67 h -0.89453 v -6.2627 h 0.7334 l 3.75781,4.66992 v -4.66996 z"
           style="fill:#34343b"
           id="path18"
           inkscape:connector-curvature="0" />
        <path
           d="M 65.33661,24.266 H 66.196 v 2.44239 a 3.33853,3.33853 0 0 1 -1.083,0.59082 4.05645,4.05645 0 0 1 -1.28808,0.20508 3.50272,3.50272 0 0 1 -1.709,-0.416 3.08806,3.08806 0 0 1 -1.19433,-1.14453 3.33359,3.33359 0 0 1 0,-3.28809 3.036,3.036 0 0 1 1.19922,-1.1455 3.57425,3.57425 0 0 1 1.72168,-0.41114 3.63827,3.63827 0 0 1 1.36523,0.2461 2.78169,2.78169 0 0 1 1.042,0.71972 l -0.55468,0.55469 a 2.52025,2.52025 0 0 0 -1.81641,-0.72461 2.64286,2.64286 0 0 0 -1.28418,0.30859 2.26163,2.26163 0 0 0 -0.88965,0.85938 2.52517,2.52517 0 0 0 0,2.46875 2.28462,2.28462 0 0 0 0.88965,0.86328 2.59524,2.59524 0 0 0 1.27539,0.31348 2.6577,2.6577 0 0 0 1.4668,-0.40235 z"
           style="fill:#34343b"
           id="path20"
           inkscape:connector-curvature="0" />
        <path
           d="m 72.49481,24.73569 a 1.58161,1.58161 0 0 1 0.3125,1.00586 1.44785,1.44785 0 0 1 -0.6123,1.25293 3.05421,3.05421 0 0 1 -1.78516,0.43848 h -2.98828 v -6.2627 h 2.80957 a 2.76209,2.76209 0 0 1 1.65918,0.42974 1.39205,1.39205 0 0 1 0.58594,1.18945 1.55116,1.55116 0 0 1 -0.22754,0.84961 1.48049,1.48049 0 0 1 -0.61328,0.5459 1.6052,1.6052 0 0 1 0.85937,0.55073 z M 68.3161,21.89487 v 2.00391 h 1.834 a 1.86389,1.86389 0 0 0 1.06055,-0.25489 0.93754,0.93754 0 0 0 0,-1.49414 1.864,1.864 0 0 0 -1.06055,-0.25488 z m 3.20312,4.5625 a 0.87,0.87 0 0 0 0.38477,-0.78711 q 0,-1.04589 -1.53027,-1.04687 H 68.3161 v 2.085 h 2.05762 a 2.12047,2.12047 0 0 0 1.1455,-0.25102 z"
           style="fill:#34343b"
           id="path22"
           inkscape:connector-curvature="0" />
        <path
           d="m 73.71161,21.17026 h 0.89453 V 27.433 h -0.89453 z"
           style="fill:#34343b"
           id="path24"
           inkscape:connector-curvature="0" />
        <path
           d="m 80.18915,27.433 -1.35157,-1.92383 c -0.167,0.01269 -0.29785,0.01855 -0.39355,0.01855 H 76.89618 V 27.433 H 76.00165 V 21.1703 H 78.444 a 2.90276,2.90276 0 0 1 1.915,0.58106 1.97354,1.97354 0 0 1 0.69726,1.60156 2.10006,2.10006 0 0 1 -0.35742,1.23535 2.02755,2.02755 0 0 1 -1.02051,0.74219 l 1.48543,2.10254 z m -0.47461,-3.03321 a 1.44309,1.44309 0 0 0 0,-2.08886 2.01967,2.01967 0 0 0 -1.29688,-0.36231 h -1.52148 v 2.81836 h 1.52148 a 1.99667,1.99667 0 0 0 1.29688,-0.36723 z"
           style="fill:#34343b"
           id="path26"
           inkscape:connector-curvature="0" />
        <path
           d="m 82.02313,21.17026 h 2.63965 a 3.81513,3.81513 0 0 1 1.76269,0.39356 2.90311,2.90311 0 0 1 1.19434,1.10449 3.35043,3.35043 0 0 1 0,3.26562 2.8989,2.8989 0 0 1 -1.19434,1.10547 3.81513,3.81513 0 0 1 -1.76269,0.39356 h -2.63965 z m 2.58594,5.48438 a 2.90213,2.90213 0 0 0 1.33691,-0.29493 2.13673,2.13673 0 0 0 0.89063,-0.82812 2.56981,2.56981 0 0 0 0,-2.46 2.13682,2.13682 0 0 0 -0.89063,-0.82813 2.90213,2.90213 0 0 0 -1.33691,-0.29492 h -1.69141 v 4.70606 z"
           style="fill:#34343b"
           id="path28"
           inkscape:connector-curvature="0" />
        <path
           d="m 92.09637,21.94858 h -2.14648 v -0.77832 h 5.17969 v 0.77832 H 92.98211 V 27.433 h -0.88574 z"
           style="fill:#34343b"
           id="path30"
           inkscape:connector-curvature="0" />
        <path
           d="M 99.80926,27.433 98.4577,25.50913 c -0.167,0.01269 -0.29785,0.01855 -0.39355,0.01855 H 96.51629 V 27.433 h -0.89453 v -6.2627 h 2.44239 a 2.90278,2.90278 0 0 1 1.915,0.58106 1.97354,1.97354 0 0 1 0.69726,1.60156 2.10006,2.10006 0 0 1 -0.35742,1.23535 2.02755,2.02755 0 0 1 -1.02051,0.74219 l 1.48535,2.10254 z m -0.47461,-3.03321 a 1.44307,1.44307 0 0 0 0,-2.08886 2.01964,2.01964 0 0 0 -1.29687,-0.36231 h -1.52149 v 2.81836 h 1.52149 a 1.99664,1.99664 0 0 0 1.29687,-0.36723 z"
           style="fill:#34343b"
           id="path32"
           inkscape:connector-curvature="0" />
        <path
           d="m 105.63348,25.86753 h -3.32812 L 101.6159,27.433 h -0.9209 l 2.83593,-6.2627 h 0.88575 l 2.84472,6.2627 h -0.93847 z m -0.31347,-0.71582 -1.35059,-3.06934 -1.35059,3.06934 z"
           style="fill:#34343b"
           id="path34"
           inkscape:connector-curvature="0" />
        <path
           d="m 107.70868,21.17026 h 2.63965 a 3.81513,3.81513 0 0 1 1.76269,0.39356 2.90311,2.90311 0 0 1 1.19434,1.10449 3.35043,3.35043 0 0 1 0,3.26562 2.8989,2.8989 0 0 1 -1.19436,1.10547 3.81513,3.81513 0 0 1 -1.76269,0.39356 h -2.63965 z m 2.58593,5.48438 a 2.90217,2.90217 0 0 0 1.33692,-0.29493 2.1367,2.1367 0 0 0 0.89062,-0.82812 2.56973,2.56973 0 0 0 0,-2.46 2.13679,2.13679 0 0 0 -0.89062,-0.82813 2.90217,2.90217 0 0 0 -1.33692,-0.29492 h -1.6914 v 4.70606 z"
           style="fill:#34343b"
           id="path36"
           inkscape:connector-curvature="0" />
        <path
           d="m 114.6159,21.17026 h 0.89454 V 27.433 h -0.89454 z"
           style="fill:#34343b"
           id="path38"
           inkscape:connector-curvature="0" />
        <path
           d="M 122.29266,21.17026 V 27.433 h -0.7334 l -3.75781,-4.67 v 4.67 h -0.89453 v -6.2627 h 0.7334 l 3.75781,4.66992 v -4.66996 z"
           style="fill:#34343b"
           id="path40"
           inkscape:connector-curvature="0" />
        <path
           d="m 128.027,24.266 h 0.85937 v 2.44239 a 3.33863,3.33863 0 0 1 -1.083,0.59082 4.05645,4.05645 0 0 1 -1.28808,0.20508 3.50272,3.50272 0 0 1 -1.709,-0.416 3.08806,3.08806 0 0 1 -1.19429,-1.14459 3.33359,3.33359 0 0 1 0,-3.28809 3.036,3.036 0 0 1 1.19922,-1.1455 3.57425,3.57425 0 0 1 1.72168,-0.41114 3.63827,3.63827 0 0 1 1.36523,0.2461 2.78169,2.78169 0 0 1 1.042,0.71972 l -0.55468,0.55469 a 2.52025,2.52025 0 0 0 -1.81641,-0.72461 2.64286,2.64286 0 0 0 -1.28418,0.30859 2.26163,2.26163 0 0 0 -0.88965,0.85938 2.52517,2.52517 0 0 0 0,2.46875 2.28462,2.28462 0 0 0 0.88965,0.86328 2.59524,2.59524 0 0 0 1.27539,0.31348 2.6577,2.6577 0 0 0 1.4668,-0.40235 z"
           style="fill:#34343b"
           id="path42"
           inkscape:connector-curvature="0" />
      </g>
    </g>
  </g>
</svg>
