<?xml version="1.0" encoding="UTF-8" standalone="no"?>
<svg
   xmlns:dc="http://purl.org/dc/elements/1.1/"
   xmlns:cc="http://creativecommons.org/ns#"
   xmlns:rdf="http://www.w3.org/1999/02/22-rdf-syntax-ns#"
   xmlns:svg="http://www.w3.org/2000/svg"
   xmlns="http://www.w3.org/2000/svg"
   xmlns:sodipodi="http://sodipodi.sourceforge.net/DTD/sodipodi-0.dtd"
   xmlns:inkscape="http://www.inkscape.org/namespaces/inkscape"
   id="logo-layer"
   viewBox="0 0 110.9912 17.41061"
   version="1.1"
   sodipodi:docname="Massagebook.svg"
   width="110.9912"
   height="17.41061"
   inkscape:version="0.92.4 (33fec40, 2019-01-16)">
  <metadata
     id="metadata26">
    <rdf:RDF>
      <cc:Work
         rdf:about="">
        <dc:format>image/svg+xml</dc:format>
        <dc:type
           rdf:resource="http://purl.org/dc/dcmitype/StillImage" />
      </cc:Work>
    </rdf:RDF>
  </metadata>
  <defs
     id="defs24" />
  <sodipodi:namedview
     pagecolor="#ffffff"
     bordercolor="#666666"
     borderopacity="1"
     objecttolerance="10"
     gridtolerance="10"
     guidetolerance="10"
     inkscape:pageopacity="0"
     inkscape:pageshadow="2"
     inkscape:window-width="652"
     inkscape:window-height="480"
     id="namedview22"
     showgrid="false"
     inkscape:zoom="4.3583794"
     inkscape:cx="55.548669"
     inkscape:cy="8.5679951"
     inkscape:window-x="67"
     inkscape:window-y="27"
     inkscape:window-maximized="0"
     inkscape:current-layer="logo-layer" />
  <title
     id="title2">colorArtboard 12 copy 6</title>
  <g
     id="text-massagebook"
     transform="translate(-0.206,-0.24071943)">
    <path
       id="letter-m"
       d="m 17.96033,4.14028 h 1.13146 v 1.31659 h 0.031 a 3.0819,3.0819 0 0 1 2.82861,-1.53979 2.09246,2.09246 0 0 1 2.32226,1.66558 h 0.03226 a 2.89451,2.89451 0 0 1 2.828,-1.66558 2.27,2.27 0 0 1 2.57708,2.45128 v 7.22482 H 28.45567 V 6.52705 A 1.522,1.522 0 0 0 26.72752,4.83051 2.27437,2.27437 0 0 0 24.46525,7.25017 v 6.37913 h -1.256 V 6.52705 A 1.522,1.522 0 0 0 21.4811,4.83051 2.274,2.274 0 0 0 19.21883,7.25017 v 6.37913 h -1.2585 z"
       inkscape:connector-curvature="0" />
    <path
       id="letter-a"
       d="m 31.2211,6.93409 c 0,-1.94877 1.09985,-3.017 3.45695,-3.017 2.29388,0 3.14215,1.00567 3.14215,2.51579 v 5.59342 c 0,0.53412 0.22,0.7857 0.65991,0.7857 h 0.34575 v 0.7857 a 2.14438,2.14438 0 0 1 -0.59733,0.09418 c -0.97406,0 -1.60237,-0.18836 -1.60237,-1.16113 V 12.2166 h -0.0316 A 2.74475,2.74475 0 0 1 33.735,13.81637 c -1.94813,0 -2.828,-1.03728 -2.828,-2.67125 a 2.54531,2.54531 0 0 1 2.2313,-2.608 L 35.49475,7.9714 c 0.87989,-0.21868 1.0676,-0.37737 1.0676,-1.50883 0,-1.22564 -0.785,-1.634 -1.91651,-1.634 a 1.88427,1.88427 0 0 0 -2.13713,2.13648 h -1.29019 z m 5.3109,1.31982 h -0.0342 c -0.12579,0.31415 -0.84827,0.50251 -1.35142,0.6283 l -1.03535,0.22 c -1.25724,0.28254 -1.91715,0.84827 -1.91715,1.94812 a 1.69212,1.69212 0 0 0 1.75976,1.85394 2.4357,2.4357 0 0 0 2.57706,-2.6706 z"
       inkscape:connector-curvature="0" />
    <path
       id="letter-s"
       d="M 41.3081,8.88221 C 39.73671,8.3797 39.17162,7.59206 39.17162,6.6509 c 0,-1.94812 1.414,-2.73382 3.33051,-2.73382 2.10552,0 3.048,0.91149 3.048,2.63964 V 6.83991 H 44.2935 V 6.55672 c 0,-1.22564 -0.65991,-1.75976 -1.82233,-1.75976 -1.47722,0 -2.04295,0.65991 -2.04295,1.603 0,0.65991 0.25158,1.16113 1.50818,1.60236 l 1.823,0.59734 a 2.491,2.491 0 0 1 2.07391,2.419 c 0,1.63461 -1.09985,2.82864 -3.45695,2.82864 -2.29387,0 -3.42469,-0.8173 -3.42469,-2.95379 v -0.31479 h 1.2566 v 0.25158 a 1.88781,1.88781 0 0 0 2.13713,2.10551 c 1.35078,0 2.1997,-0.6283 2.1997,-1.69718 0,-0.84827 -0.409,-1.38239 -1.50883,-1.75976 z"
       inkscape:connector-curvature="0" />
    <path
       id="letter-s2"
       d="M 48.62968,8.88221 C 47.05893,8.3797 46.4932,7.59206 46.4932,6.6509 c 0,-1.94812 1.414,-2.73382 3.33116,-2.73382 2.10487,0 3.048,0.91149 3.048,2.63964 V 6.83991 H 51.61508 V 6.55672 c 0,-1.22564 -0.65991,-1.75976 -1.82233,-1.75976 -1.47722,0 -2.04295,0.65991 -2.04295,1.603 0,0.65991 0.25158,1.16113 1.50883,1.60236 l 1.82233,0.59734 a 2.491,2.491 0 0 1 2.07391,2.419 c 0,1.63461 -1.09985,2.82864 -3.4563,2.82864 -2.29388,0 -3.42534,-0.8173 -3.42534,-2.95379 v -0.31479 h 1.25531 v 0.25158 a 1.88781,1.88781 0 0 0 2.13713,2.10551 c 1.35465,0 2.1997,-0.6283 2.1997,-1.69718 0,-0.84827 -0.40834,-1.38239 -1.50818,-1.75976 z"
       inkscape:connector-curvature="0" />
    <path
       id="letter-a2"
       d="m 53.97218,6.93409 c 0,-1.94877 1.09985,-3.017 3.4563,-3.017 2.29388,0 3.14215,1.00567 3.14215,2.51579 v 5.59342 c 0,0.53412 0.22,0.7857 0.65991,0.7857 h 0.34576 v 0.7857 a 2.14371,2.14371 0 0 1 -0.5967,0.09418 c -0.974,0 -1.603,-0.18836 -1.603,-1.16113 V 12.2166 h -0.031 A 2.74285,2.74285 0 0 1 56.486,13.819 c -1.94812,0 -2.828,-1.03728 -2.828,-2.67125 a 2.54527,2.54527 0 0 1 2.23066,-2.608 l 2.3571,-0.56573 C 59.12564,7.75277 59.314,7.59408 59.314,6.46262 c 0,-1.22564 -0.7857,-1.634 -1.91716,-1.634 A 1.88407,1.88407 0 0 0 55.26036,6.9651 h -1.29012 z m 5.31024,1.31982 h -0.031 c -0.129,0.31415 -0.84892,0.50251 -1.35466,0.6283 l -1.03728,0.22 c -1.25338,0.28254 -1.91264,0.84827 -1.91264,1.94812 a 1.69212,1.69212 0 0 0 1.75976,1.85394 2.43523,2.43523 0 0 0 2.57642,-2.6706 V 8.25391 Z"
       inkscape:connector-curvature="0" />
    <path
       id="letter-g"
       d="m 68.0496,4.14028 h 1.13146 v 8.79879 c 0,2.608 -1.13146,3.95946 -3.6453,3.95946 -2.16809,0 -3.29955,-0.97406 -3.29955,-2.32549 h 1.25724 c 0,0.87988 0.97406,1.414 2.10552,1.414 1.53979,0 2.35645,-0.91149 2.35645,-2.57642 v -1.51205 h -0.0316 a 2.59017,2.59017 0 0 1 -2.608,1.69719 c -1.72815,0 -3.4563,-0.97406 -3.4563,-4.74516 0,-3.26794 1.09984,-4.93352 3.58209,-4.93352 a 2.63154,2.63154 0 0 1 2.608,1.66558 h 0.03161 V 4.14028 Z m -2.51578,8.57947 c 1.47722,0 2.3571,-0.94245 2.3571,-3.95946 0,-3.01701 -0.87988,-3.92785 -2.3571,-3.92785 -1.47722,0 -2.35645,0.94245 -2.35645,3.92785 0.0019,3.01314 0.88181,3.95559 2.35839,3.95559 z"
       inkscape:connector-curvature="0" />
    <path
       id="letter-e"
       d="M 77.63409,10.45361 A 3.41924,3.41924 0 0 1 74.052,13.81637 c -2.3571,0 -3.74142,-1.38239 -3.74142,-4.96706 0,-3.26794 1.38239,-4.93352 3.83367,-4.93352 2.48224,0 3.58209,1.44561 3.58209,4.58776 v 0.37737 h -6.09593 v 0.43994 c 0,2.73382 1.13082,3.5479 2.35645,3.5479 1.31982,0 2.13713,-0.81731 2.3571,-2.45128 h 1.29015 z M 76.37685,8.00233 c -0.031,-2.3571 -0.81667,-3.20537 -2.35646,-3.20537 -1.53979,0 -2.32226,0.84827 -2.3571,3.20537 z"
       inkscape:connector-curvature="0" />
    <path
       id="letter-b"
       d="m 78.73395,0.86911 h 1.2566 v 4.68194 h 0.03161 a 2.452,2.452 0 0 1 2.608,-1.634 c 2.45128,0 3.58274,1.66558 3.58274,4.93352 0,3.26794 -1.09663,4.96706 -3.58274,4.96706 a 2.71844,2.71844 0 0 1 -2.73382,-1.79137 h -0.031 v 1.5714 h -1.13139 z m 3.70787,12.06674 c 1.25725,0 2.41967,-0.56573 2.41967,-4.05364 0,-3.48791 -1.16113,-4.05364 -2.41967,-4.05364 -1.29014,0 -2.41966,0.56573 -2.41966,4.05364 -0.03161,3.48791 1.13146,4.05364 2.41966,4.05364 z"
       inkscape:connector-curvature="0" />
    <path
       id="letter-o"
       d="m 90.58071,3.91708 c 2.45128,0 3.83367,1.66558 3.83367,4.93352 0,3.29955 -1.383,4.96706 -3.83367,4.96706 -2.45067,0 -3.83171,-1.66751 -3.83171,-4.96835 0,-3.26665 1.38044,-4.93223 3.83171,-4.93223 z m 0,9.01877 c 1.414,0 2.48224,-1.03728 2.48224,-4.05364 0,-3.01636 -1.09985,-4.05364 -2.48224,-4.05364 -1.38239,0 -2.48288,1.03663 -2.48288,4.05364 0,3.01701 1.10243,4.05364 2.48288,4.05364 z"
       inkscape:connector-curvature="0" />
    <path
       id="letter-o2"
       d="m 98.688,3.91708 c 2.45127,0 3.83367,1.66558 3.83367,4.93352 0,3.29955 -1.3824,4.96706 -3.83367,4.96706 -2.45127,0 -3.83368,-1.66558 -3.83368,-4.96706 0,-3.26794 1.38239,-4.93352 3.83368,-4.93352 z m 0,9.01877 c 1.414,0 2.48223,-1.03728 2.48223,-4.05364 0,-3.01636 -1.09663,-4.05364 -2.48223,-4.05364 -1.3856,0 -2.48225,1.03663 -2.48225,4.05364 0,3.01701 1.06825,4.05364 2.48225,4.05364 z"
       inkscape:connector-curvature="0" />
    <path
       id="letter-k"
       d="m 103.40154,0.86911 h 1.2566 v 7.9802 h 0.0316 l 4.33682,-4.709 h 1.53979 l -3.33116,3.51949 3.962,5.96757 h -1.53979 l -3.29951,-4.99674 -1.66557,1.66558 v 3.33116 h -1.2566 V 0.86911 Z"
       inkscape:connector-curvature="0" />
  </g>
  <g
     id="icon"
     transform="translate(-0.206,-0.24071943)">
    <path
       id="icon-outer"
       d="m 6.80509,0.24081 v 0 A 6.56467,6.56467 0 0 0 0.206,6.77669 c 0,1.72815 0.31415,3.11119 2.01134,5.65665 a 36.78565,36.78565 0 0 0 4.43036,5.15348 0.2425,0.2425 0 0 0 0.1574,0.06451 v 0 a 0.24057,0.24057 0 0 0 0.15675,-0.06451 39.42418,39.42418 0 0 0 4.431,-5.15348 C 13.09,9.88788 13.40418,8.53645 13.40418,6.77669 A 6.64549,6.64549 0 0 0 6.80509,0.24081 Z m 0,10.0554 a 3.74154,3.74154 0 1 1 3.77045,-3.74142 3.75587,3.75587 0 0 1 -3.77045,3.74142 z"
       inkscape:connector-curvature="0" />
    <path
       id="clock-hour"
       d="M 8.06169,6.74508 A 1.26824,1.26824 0 0 1 7.02506,7.78236 l 2.35645,2.32549 a 0.73347,0.73347 0 0 0 1.03728,-1.03728 v 0 z"
       style="fill:#414042"
       inkscape:connector-curvature="0" />
    <path
       id="clock-minute"
       d="m 11.95857,1.40323 a 0.74054,0.74054 0 0 0 -1.03727,0 L 6.99345,5.30141 A 1.23367,1.23367 0 0 1 8.03073,6.338 l 3.92784,-3.8962 a 0.68894,0.68894 0 0 0 0,-1.03857 z"
       style="fill:#414042"
       inkscape:connector-curvature="0" />
    <path
       id="clock-center"
       d="M 7.52757,6.52705 A 0.72313,0.72313 0 1 1 6.8038,5.80457 h 0.00129 a 0.73086,0.73086 0 0 1 0.72248,0.72248 z"
       style="fill:#414042"
       inkscape:connector-curvature="0" />
  </g>
</svg>
