<svg id="logo-layer" xmlns="http://www.w3.org/2000/svg" viewBox="0 0 88.49034 30.39918"><title>colorArtboard 12 copy 4</title><path d="M76.39077,13.34535v11.982a1.24653,1.24653,0,0,0,.17456.02633c.38082.00293.76213.00293,1.14344.00342.34864,0,.69777.00341,1.04689,0,.179,0,.19211-.02146.20138-.195v-2.874q-.00438-2.25275-.00926-4.505a.57777.57777,0,0,1,.03218-.12434,1.27388,1.27388,0,0,1,.373.42909c.27745.40764.54856.81967.81919,1.2317q.64511.98106,1.2868,1.96311.40569.61828.81576,1.23365a1.05683,1.05683,0,0,0,.12971.13263c.57684-.8577,1.13759-1.68566,1.692-2.518s1.084-1.69346,1.70273-2.4985a.37448.37448,0,0,1,.05851.18431q.00292,1.70664,0,3.40936,0,1.94751-.00488,3.89648c0,.06973.01268.13945.02146.22869.70556.01365,1.38968.0156,2.08208,0V13.34535a.84151.84151,0,0,0-.12678-.01951c-.552,0-1.10394-.0039-1.65786,0a1.177,1.177,0,0,0-.54759.03853c-.15018.08874-.23112.30134-.33206.46566-.34767.56514-.68265,1.13662-1.03666,1.69785-.36034.57392-.73677,1.13759-1.102,1.70663-.19992.31256-.39009.63389-.58806.94547a1.25365,1.25365,0,0,1-.15408.16482c-.05169-.06925-.09314-.117-.12678-.17018q-.49345-.77676-.98594-1.55547c-.29257-.46371-.58854-.92645-.8777-1.39066-.36278-.58513-.72361-1.17026-1.07712-1.75929a.26382.26382,0,0,0-.20919-.14043,1.61549,1.61549,0,0,0-.195-.00585H76.52827A1.32509,1.32509,0,0,0,76.39077,13.34535Z" style="fill:#fff"/><path d="M54.03637.002c.03413.355.07119.71.10093,1.06543.041.48419.077.96936.11459,1.454.0395.50907.077,1.01862.11752,1.52768.03657.4603.07948.9206.11264,1.38139.03462.48517.0551.97132.09167,1.45649.04.532.09752,1.063.137,1.59545.06241.81626.11556,1.633.17749,2.44926.038.50906.08484,1.01715.12873,1.52572q.00834.06759.0234.1341c.12483.04291.23649.08435.34962.12044s.18432-.00634.2438-.138c.1536-.34132.30232-.67972.45543-1.01861q.46371-1.0274.93035-2.05332c.26526-.57976.5393-1.15563.80309-1.73588.30378-.668.592-1.34336.90646-2.00651a2.6179,2.6179,0,0,1,.42276-.77432.60765.60765,0,0,1-.019.45835c-.13068.48371-.28184.96156-.42129,1.44332q-.256.884-.50467,1.771c-.11118.3974-.21455.79675-.32621,1.19415-.13507.48225-.27745.96206-.412,1.4443-.17359.62316-.34132,1.2473-.51345,1.869.09752.17115.275.19505.44519.28964.16578-.17017.33206-.34376.50077-.51442.48225-.48761.9679-.96937,1.44771-1.458.61048-.62219,1.21414-1.25072,1.8256-1.87193.36278-.36863.73629-.727,1.10248-1.09224.274-.27306.54515-.54905.81626-.825q.71435-.72459,1.4282-1.45161.80017-.81237,1.60423-1.62228a2.09848,2.09848,0,0,1,.23747-.17359.64189.64189,0,0,1-.16481.393q-.63389.90354-1.281,1.79781-.8182,1.141-1.64178,2.27859c-.32669.45006-.66705.89037-.99179,1.34141-.51979.72117-1.03032,1.44917-1.54816,2.17181-.35156.49151-.70752.9796-1.06347,1.46819-.19846.27306-.40131.5427-.59928.81576a.15768.15768,0,0,0,.02487.21943l.26429.28135c.84844-.41008,1.6959-.82455,2.54775-1.23072s1.72175-.81041,2.58432-1.21659c.84747-.40032,1.68225-.82893,2.54386-1.19659.01463.02194.02974.0434.04486.06485a.72585.72585,0,0,1-.11361.12629c-.44372.3072-.89233.60756-1.33459.9172-.2633.18382-.51735.37984-.81284.59732a.98343.98343,0,0,0,.19211.04876c.51151.00438,1.024.00536,1.534.00585.80406,0,1.6091-.0039,2.41171.00243A7.87568,7.87568,0,0,1,70.028,13.381a10.14673,10.14673,0,0,1,1.08493.256,3.24322,3.24322,0,0,1,1.11857.56465A3.41849,3.41849,0,0,1,73.468,15.957a4.66756,4.66756,0,0,1,.17407,1.68322,3.6579,3.6579,0,0,1-1.01568,2.42731,4.1746,4.1746,0,0,1-1.55157.98546c.97083,1.4204,1.93922,2.82813,2.92565,4.28608-.13263.00975-.20967.02048-.28671.02048-.86015,0-1.72029-.00342-2.58043.00439a.40265.40265,0,0,1-.38423-.22723c-.24674-.39789-.51589-.78017-.77677-1.17026-.51686-.76993-1.03616-1.53791-1.54815-2.31029a.34208.34208,0,0,0-.32573-.16237c-.52759.0039-1.05518,0-1.58277,0-.08826,0-.17652.0117-.29257.02-.00536.18432-.01512.35986-.01512.53637,0,1.10443.00488,2.20887,0,3.3133a.34133.34133,0,0,0,.16726.32085q.6573.43591,1.30971.87769,1.05177.71192,2.10159,1.42723.38082.25891.75726.52418a1.61328,1.61328,0,0,1,.15554.14628.34567.34567,0,0,1-.27208-.0156c-.33792-.157-.6729-.32036-1.00886-.48078q-.54417-.25941-1.08883-.51882c-.33352-.16042-.66509-.32572-1.00008-.48224-.28476-.13312-.57489-.25307-.85965-.38521-.395-.18383-.788-.37254-1.1805-.56222-.5315-.25648-1.05957-.52027-1.59253-.77286-.6573-.31109-1.31654-.61292-1.97725-.92109-.32914-.15457-.65681-.313-.984-.47152-.45689-.22186-.91231-.44713-1.37018-.668-.16871-.08094-.2438-.06192-.37741.08192-.06973.0746-.137.15116-.18529.20479.58513.82309,1.14881,1.61935,1.71833,2.41123.3818.53.77432,1.05177,1.15905,1.57936.26623.36571.531.73141.79041,1.10346.20284.29256.394.58952.59585.88111.10923.15847.23308.30719.34133.46566a1.4254,1.4254,0,0,1,.10045.20918l-.04535.0395c-.0824-.06583-.16969-.12678-.24381-.19895-.41056-.38716-.82893-.76944-1.22584-1.16782-.48468-.48322-.95133-.98448-1.43211-1.4716-.3345-.34132-.68265-.6651-1.01959-1.003q-.787-.79139-1.56571-1.59106c-.2872-.29257-.28671-.30281-.63389-.10582a6.57591,6.57591,0,0,1-1.21024.55734,6.94827,6.94827,0,0,1-2.32052.33791,6.37677,6.37677,0,0,1-1.41943-.18431,6.50685,6.50685,0,0,1-1.38676-.51,6.73759,6.73759,0,0,1-1.74807-1.278,6.458,6.458,0,0,1-1.34043-1.97579,5.83587,5.83587,0,0,1-.52808-2.50192,9.74718,9.74718,0,0,1,.09752-1.357,9.77458,9.77458,0,0,1,.35156-1.20293c.07022-.22576.07509-.22674-.1141-.35449q-.75482-.5076-1.51158-1.01228a.99549.99549,0,0,0-.10143-.04876c-.0156.14336-.02925.26819-.04486.40862-.08094.00731-.15115.01853-.22186.01853q-1.97335,0-3.94962-.00488-1.04739,0-2.09672.00634c-.23893,0-.26672.02145-.26818.26672-.00439.69826,0,1.396,0,2.09428a1.254,1.254,0,0,0,.02877.17164c.63389.0195,1.26339.00634,1.89387.0078h3.838v2.38489a2.47269,2.47269,0,0,1-.29256.03267c-.76311,0-1.52573-.00926-2.28835-.00975-.6412,0-1.28192.0078-1.92264.01073h-.97521c-.26624,0-.28379.01706-.28477.27159q-.00292,1.46283,0,2.92175v1.24243c0,.0707-.01268.1414-.021.23063-.88014.0239-1.74272.00634-2.61895.01122V13.32877c2.08355-.01073,4.16076,0,6.24529-.0395-.73141-.589-1.54426-1.04689-2.28737-1.66762a.83694.83694,0,0,1,.56709.15067c.57294.25892,1.13759.53637,1.70663.807.48029.22771.9601.45786,1.44331.67875a.794.794,0,0,0,.30281.0629c.34913.0078.69826.00244,1.04738.00488a1.27883,1.27883,0,0,1,.17213.03023c0,.16432.00292.32474,0,.48517a.21406.21406,0,0,0,.14141.22625q.6729.30329,1.33945.62072c.35693.16969.71.34669,1.06494.52077.01366-.00585.03267-.0078.04145-.01853.30134-.38521.3067-.39009.02-.79139-.48761-.68265-.98253-1.3653-1.47648-2.04795-.61634-.8499-1.23706-1.69688-1.85291-2.54776-.32134-.44469-.63145-.89671-.9523-1.3414-.35937-.49785-.72654-.98985-1.08786-1.48575q-.79235-1.08347-1.58032-2.17278a3.60734,3.60734,0,0,1-.19505-.34523.85269.85269,0,0,1,.44178.30768c.29744.28379.57684.58513.86648.8777.59244.59732,1.18976,1.18927,1.77977,1.78952.33255.3384.65193.69045.982,1.03178.15165.15652.31792.29841.472.453.28038.27988.55295.56757.83479.84648.33791.3345.688.65632,1.02105.99521.34572.35157.67193.72264,1.01618,1.07615.395.40569.80065.80114,1.20049,1.20245.13117.13214.25794.26867.40179.41934l.451-.25063c-.09752-.36132-.17993-.69728-.2716-1.03081-.11751-.42958-.24039-.8577-.35985-1.28679-.12386-.44373-.24381-.88843-.36863-1.33215-.14141-.50565-.28574-1.01032-.42861-1.51549q-.26672-.94449-.533-1.889Q48.9204,5.687,48.8,5.2179a1.52529,1.52529,0,0,1-.0156-.25551,1.53073,1.53073,0,0,1,.35644.57586c.41154.90452.8104,1.81488,1.22438,2.71842.2438.5271.50906,1.043.75335,1.56912.30281.65242.59294,1.31069.88989,1.96653.136.30036.274.60024.42324.92645l.48371-.10825c.01463-.09752.038-.20772.04876-.31743q.07218-.90988.13751-1.81975c.05754-.78408.11264-1.56864.17066-2.3532q.07167-.98253.14628-1.96457c.05315-.67876.10971-1.35751.16579-2.03626.06046-.7358.12531-1.47062.18237-2.20642.03461-.4447.05314-.89038.08826-1.33507.01511-.195.05266-.38521.08-.57782ZM54.0037,23.07411a3.95162,3.95162,0,1,0-.22869-7.89535,3.94972,3.94972,0,0,0,.22674,7.89535Zm12.21654-7.37264V19.1396h2.7623a2.28822,2.28822,0,0,0,.97521-.1731,1.61816,1.61816,0,0,0,.85429-.81431,2.00737,2.00737,0,0,0,.11216-1.04836,1.38972,1.38972,0,0,0-.67387-1.064,2.432,2.432,0,0,0-1.3-.3384H66.22024Zm-2.68185-1.52426a1.95773,1.95773,0,0,0-.20626.09752c-.18724.12239-.372.24819-.55685.374q-1.20732.82308-2.41366,1.64616c-.29256.19992-.29744.21991-.14921.54563a1.11313,1.11313,0,0,0,.08631.13458c.16773-.00975.33792-.01414.50663-.03071.12677-.01268.25209-.04584.37887-.06193.15262-.0195.30622-.02877.45933-.04535.297-.03169.59391-.06826.89135-.09752.26574-.02633.53295-.04291.79919-.06778.21211-.02.23308-.04.23454-.25355q.0078-1.00935.00731-2.01919a1.491,1.491,0,0,0-.038-.22186Zm.021,7.14151a4.939,4.939,0,0,0-.5193-.10874c-.65193-.06436-1.30484-.12-1.95775-.17408-.23991-.02-.48078-.02584-.72556-.03852-.05315.16433-.09752.30037-.14628.45007.0629.05217.12043.10727.18529.15213.2833.198.57.39009.85234.589.32816.23112.65047.47152.98107.7002q.42567.29258.864.57c.138.08777.2872.158.46615.255Zm-.04876-1.04446a.75548.75548,0,0,0,.05412-.18042c.00342-.53636.00634-1.06883,0-1.60325,0-.18432-.04876-.21113-.22722-.16481-.24917.06582-.49834.13165-.748.195-.532.13556-1.06591.26282-1.59545.40667-.40716.11068-.40472.11946-.37254.55782,0,.01414.01463.02779.0317.05754Z"/><path d="M76.39077,13.34535a1.32636,1.32636,0,0,1,.14091-.01707H78.9429a1.61566,1.61566,0,0,1,.19505.00585.26381.26381,0,0,1,.20918.14043c.35352.58952.71435,1.17514,1.07713,1.75929.28963.46518.58513.92646.87769,1.39066q.49249.78018.98595,1.55547c.03364.05315.07509.10094.12677.17018a1.25305,1.25305,0,0,0,.15409-.16482c.19845-.31353.39008-.63389.58806-.94547.36521-.571.74165-1.13466,1.102-1.70663.35254-.56123.689-1.13271,1.03665-1.69785.10094-.16432.18188-.37692.33207-.46566a1.19021,1.19021,0,0,1,.54758-.03853H87.833a.8419.8419,0,0,1,.12678.01951V25.34538c-.6924.01756-1.37652.01561-2.08209,0-.00878-.08923-.02145-.159-.02145-.22869q0-1.95042.00488-3.89647V17.81086a.37439.37439,0,0,0-.05852-.18431c-.61877.805-1.14539,1.66225-1.70273,2.4985s-1.11515,1.6603-1.692,2.518a1.05614,1.05614,0,0,1-.12971-.13263q-.41056-.61536-.81577-1.23365-.64364-.98058-1.28679-1.96311c-.27063-.412-.54174-.82406-.81919-1.2317a1.274,1.274,0,0,0-.373-.42909.57725.57725,0,0,0-.03218.12433q.00292,2.25276.00926,4.505v2.874c-.00926.176-.02243.195-.20138.195-.34913.00488-.69826,0-1.0469,0-.3813,0-.76262,0-1.14344-.00341a1.2497,1.2497,0,0,1-.17456-.02633Z"/><path d="M24.0709,25.35514V13.338c.0868-.00487.16481-.01365.24381-.01365,1.0308,0,2.0616.00634,3.09241.00732.61682,0,1.23365-.01171,1.85047-.00488a9.18744,9.18744,0,0,1,1.31264.05656,4.844,4.844,0,0,1,1.927.66607,3.46961,3.46961,0,0,1,1.52719,2.15377,4.62408,4.62408,0,0,1,.08387,1.74076,3.69261,3.69261,0,0,1-.55441,1.56669,3.49473,3.49473,0,0,1-1.02886,1.042c-.28476.18286-.58952.33353-.9128.51394a.90566.90566,0,0,0,.07851.19261c.51686.7514,1.03958,1.49891,1.55644,2.2508.40618.591.806,1.18586,1.219,1.79586a.4315.4315,0,0,1-.13019.04876c-.92645,0-1.849,0-2.77351.00341a.26281.26281,0,0,1-.24381-.12921q-.67533-1.005-1.3536-2.006c-.21747-.32085-.43885-.64072-.65388-.96157-.13068-.195-.26331-.38716-.39009-.58513a.336.336,0,0,0-.31792-.176c-.55977.00585-1.1215,0-1.67981.00341-.22918,0-.2438.01609-.2438.25795v3.579C25.81166,25.3722,24.95689,25.34977,24.0709,25.35514Zm2.617-6.24139c.09362.00975.15652.02243.21942.02243.90012,0,1.80025.00488,2.70037-.00244a2.81369,2.81369,0,0,0,.551-.0707,1.79208,1.79208,0,0,0,.80992-.411,1.56525,1.56525,0,0,0,.48078-.90647,2.05149,2.05149,0,0,0-.0317-.747,1.34141,1.34141,0,0,0-.67436-.95718,2.5507,2.5507,0,0,0-1.30045-.33791c-.67339.00585-1.34629-.00293-2.01967-.00244-.23259,0-.46567.00878-.73532.01414-.00341,1.13662-.00341,2.25129,0,3.39668Z"/><path d="M21.26472,13.34535c.01121.79529.01414,1.55352,0,2.34052H14.78733V18.099c.94889.0078,1.89631,0,2.84324.00292s1.88071,0,2.85544,0c.0039.78847.02633,1.55255-.01024,2.34443h-.99814q-1.97334-.00439-3.94621-.00781-.27989,0-.56026.00927c-.17066.00634-.195.02877-.195.20382-.00439.48761-.00244.97521-.00293,1.46282v.8777c.553.05168,1.09419.01463,1.634.02389.552.00975,1.10443.00536,1.65786.00488.54369,0,1.08786-.00342,1.632-.0039s1.0859,0,1.65445,0c.00927.11312.02292.20674.02341.30036V25.044c0,.05705,0,.1141-.0039.17066a.13214.13214,0,0,1-.12044.14289q-.00633.00054-.01268.00047c-.03218,0-.06485.00439-.09752.00439-.73141,0-1.46039-.00536-2.19082-.00585-.61634,0-1.23268.00439-1.849.00439-.50321,0-1.00691-.00341-1.51159-.0039-.34864,0-.69728,0-1.04592.00292H13.10655c-.21894,0-.43885.00293-.6573,0-.08777,0-.17554-.0078-.257-.01121-.058-.19114-.07412-11.62555-.0195-12.003Z"/><path d="M2.935,21.75951v3.581H.3278c-.05949-.195-.07217-11.647-.01414-12.001.07265-.00488.15116-.01512.22966-.01463,1.2985,0,2.597,0,3.895.00829.51052.00292,1.024-.00878,1.53108.03754a4.44742,4.44742,0,0,1,2.33662.847A3.71406,3.71406,0,0,1,9.61527,16.035a4.64436,4.64436,0,0,1,.21455,1.9636,3.76378,3.76378,0,0,1-.86892,2.14548A3.995,3.995,0,0,1,7.58731,21.1856a5.38936,5.38936,0,0,1-1.1215.38667,6.84077,6.84077,0,0,1-1.44527.17261c-.61731-.00585-1.23462,0-1.85291,0C3.10034,21.7444,3.02964,21.75317,2.935,21.75951Zm.00829-2.398a.4062.4062,0,0,0,.0824.03023c.78018-.00731,1.55742.00244,2.33467-.03121a1.84944,1.84944,0,0,0,1.08054-.39009,1.65933,1.65933,0,0,0,.6651-.91962,2.61112,2.61112,0,0,0,.03608-.846,1.51655,1.51655,0,0,0-.84063-1.20049,2.41813,2.41813,0,0,0-1.23658-.2994c-.47932,0-.95815-.00487-1.43747-.0039-.22381,0-.44762.00927-.68265.01463Z"/></svg>