<?xml version="1.0" encoding="UTF-8" standalone="no"?>
<svg
   xmlns:dc="http://purl.org/dc/elements/1.1/"
   xmlns:cc="http://creativecommons.org/ns#"
   xmlns:rdf="http://www.w3.org/1999/02/22-rdf-syntax-ns#"
   xmlns:svg="http://www.w3.org/2000/svg"
   xmlns="http://www.w3.org/2000/svg"
   xmlns:sodipodi="http://sodipodi.sourceforge.net/DTD/sodipodi-0.dtd"
   xmlns:inkscape="http://www.inkscape.org/namespaces/inkscape"
   id="logo-layer"
   viewBox="0 0 52.769966 15.144595"
   version="1.1"
   sodipodi:docname="quicket.svg"
   width="52.769966"
   height="15.144595"
   inkscape:version="0.92.4 (33fec40, 2019-01-16)">
  <metadata
     id="metadata69">
    <rdf:RDF>
      <cc:Work
         rdf:about="">
        <dc:format>image/svg+xml</dc:format>
        <dc:type
           rdf:resource="http://purl.org/dc/dcmitype/StillImage" />
        <dc:title>fontArtboard 1 copy 2</dc:title>
      </cc:Work>
    </rdf:RDF>
  </metadata>
  <defs
     id="defs67" />
  <sodipodi:namedview
     pagecolor="#ffffff"
     bordercolor="#666666"
     borderopacity="1"
     objecttolerance="10"
     gridtolerance="10"
     guidetolerance="10"
     inkscape:pageopacity="0"
     inkscape:pageshadow="2"
     inkscape:window-width="652"
     inkscape:window-height="480"
     id="namedview65"
     showgrid="false"
     inkscape:zoom="5.0164309"
     inkscape:cx="47.789343"
     inkscape:cy="17.059909"
     inkscape:window-x="354"
     inkscape:window-y="292"
     inkscape:window-maximized="0"
     inkscape:current-layer="logo-layer" />
  <title
     id="title2">fontArtboard 1 copy 2</title>
  <g
     id="Artboard-9"
     transform="translate(-0.14703478,-1.0465266)">
    <g
       id="Group-12-Copy">
      <g
         id="Quicket"
         style="isolation:isolate">
        <g
           style="isolation:isolate"
           id="g16">
          <path
             d="m 12.21094,13.77657 a 3.60857,3.60857 0 0 1 -1.22461,0.94629 3.51921,3.51921 0 0 1 -1.50391,0.32519 3.92562,3.92562 0 0 1 -1.915,-0.48828 9.21631,9.21631 0 0 1 -2.03906,-1.667 A 5.8348,5.8348 0 0 1 2.76078,12.07148 5.29712,5.29712 0 0 1 0.83789,10.094 5.50178,5.50178 0 0 1 0.14746,7.35811 5.47375,5.47375 0 0 1 0.89946,4.52022 5.33373,5.33373 0 0 1 2.96973,2.528 6.06179,6.06179 0 0 1 5.93164,1.80681 6.03217,6.03217 0 0 1 8.877,2.528 a 5.28808,5.28808 0 0 1 2.0625,1.98438 5.5028,5.5028 0 0 1 0.74414,2.8457 5.57524,5.57524 0 0 1 -0.53515,2.44873 5.20758,5.20758 0 0 1 -1.50391,1.877 5.65071,5.65071 0 0 1 -2.22466,1.05369 3.94373,3.94373 0 0 0 1.04688,0.83008 2.25489,2.25489 0 0 0 1.03027,0.25586 2.58817,2.58817 0 0 0 1.98535,-0.93066 z M 2.249,9.48946 a 3.93851,3.93851 0 0 0 1.51953,1.49609 4.34135,4.34135 0 0 0 2.16309,0.543 4.274,4.274 0 0 0 2.13965,-0.543 A 3.96509,3.96509 0 0 0 9.583,9.48946 4.1903,4.1903 0 0 0 10.1328,7.35811 4.19513,4.19513 0 0 0 9.583,5.22579 3.96849,3.96849 0 0 0 8.07128,3.72969 4.27918,4.27918 0 0 0 5.93163,3.18669 4.34659,4.34659 0 0 0 3.76854,3.72969 3.94184,3.94184 0 0 0 2.249,5.22579 4.18615,4.18615 0 0 0 1.69822,7.35811 4.18133,4.18133 0 0 0 2.249,9.48946 Z"
             style="fill:#231f20"
             id="path4"
             inkscape:connector-curvature="0" />
          <path
             d="m 20.05664,4.56709 v 8.21729 h -1.41016 v -1.24023 a 2.99641,2.99641 0 0 1 -1.18652,0.98437 3.70446,3.70446 0 0 1 -1.60449,0.34863 3.58412,3.58412 0 0 1 -2.58985,-0.90722 3.53549,3.53549 0 0 1 -0.94628,-2.67383 v -4.729 h 1.48925 v 4.5586 a 2.55035,2.55035 0 0 0 0.57325,1.80615 2.14381,2.14381 0 0 0 1.64355,0.61231 2.4543,2.4543 0 0 0 1.86133,-0.71387 2.80032,2.80032 0 0 0 0.68164,-2.01465 V 4.56709 Z"
             style="fill:#231f20"
             id="path6"
             inkscape:connector-curvature="0" />
          <path
             d="m 21.47559,2.70625 a 0.915,0.915 0 0 1 -0.28711,-0.68212 0.94,0.94 0 0 1 0.28711,-0.69 0.97592,0.97592 0 0 1 0.7207,-0.28711 1.00907,1.00907 0 0 1 0.7207,0.27149 0.88984,0.88984 0 0 1 0.28711,0.67432 0.95781,0.95781 0 0 1 -0.28711,0.70556 0.977,0.977 0 0 1 -0.7207,0.28662 0.99065,0.99065 0 0 1 -0.7207,-0.27876 z m -0.02344,1.86084 h 1.48828 v 8.21729 h -1.48828 z"
             style="fill:#231f20"
             id="path8"
             inkscape:connector-curvature="0" />
          <path
             d="m 25.67676,12.33516 a 3.98942,3.98942 0 0 1 -1.543,-1.49707 4.19988,4.19988 0 0 1 -0.55759,-2.16209 4.20093,4.20093 0 0 1 0.55762,-2.16308 3.93158,3.93158 0 0 1 1.543,-1.48877 4.61949,4.61949 0 0 1 2.24121,-0.53469 4.2996,4.2996 0 0 1 1.99219,0.4497 3.20238,3.20238 0 0 1 1.35641,1.30225 l -1.13183,0.729 A 2.53185,2.53185 0 0 0 29.17383,6.08663 2.74568,2.74568 0 0 0 27.90234,5.7917 2.93888,2.93888 0 0 0 26.45215,6.14864 2.54394,2.54394 0 0 0 25.44434,7.16426 3.07005,3.07005 0 0 0 25.08008,8.676 a 3.0969,3.0969 0 0 0 0.36426,1.52637 2.54086,2.54086 0 0 0 1.00781,1.01563 2.934,2.934 0 0 0 1.45019,0.35743 2.74568,2.74568 0 0 0 1.27149,-0.29493 2.53577,2.53577 0 0 0 0.96094,-0.88379 l 1.13183,0.71289 a 3.25048,3.25048 0 0 1 -1.35644,1.31055 4.24274,4.24274 0 0 1 -1.99219,0.457 4.56923,4.56923 0 0 1 -2.24121,-0.54199 z"
             style="fill:#231f20"
             id="path10"
             inkscape:connector-curvature="0" />
          <path
             d="m 34.834,8.95479 -1.706,1.58154 v 2.24805 H 31.63965 V 1.2795 h 1.48828 v 7.38086 l 4.48145,-4.09327 h 1.79882 l -3.458,3.39551 3.7988,4.82178 h -1.83 z"
             style="fill:#231f20"
             id="path12"
             inkscape:connector-curvature="0" />
          <path
             d="m 46.80469,9.17159 h -6.668 a 2.57875,2.57875 0 0 0 0.9541,1.74463 3.10936,3.10936 0 0 0 2.02344,0.65918 3.04743,3.04743 0 0 0 2.37207,-0.99317 l 0.82129,0.96192 A 3.60063,3.60063 0 0 1 44.91989,12.53633 5.23324,5.23324 0 0 1 40.75681,12.342 3.80311,3.80311 0 0 1 39.19919,10.8459 4.28548,4.28548 0 0 1 38.64844,8.676 4.34888,4.34888 0 0 1 39.18359,6.52073 3.82735,3.82735 0 0 1 40.65625,5.02415 4.19674,4.19674 0 0 1 42.77246,4.48948 4.11409,4.11409 0 0 1 44.87402,5.02415 3.75772,3.75772 0 0 1 46.31543,6.52073 4.55485,4.55485 0 0 1 46.835,8.72237 4.26019,4.26019 0 0 1 46.80469,9.17159 Z M 40.98145,6.39668 a 2.62671,2.62671 0 0 0 -0.84473,1.70557 h 5.27246 a 2.64636,2.64636 0 0 0 -0.8457,-1.69775 2.77529,2.77529 0 0 0 -3.582,-0.00782 z"
             style="fill:#231f20"
             id="path14"
             inkscape:connector-curvature="0" />
        </g>
        <g
           style="isolation:isolate"
           id="g20">
          <path
             d="m 52.917,12.30391 a 2.21523,2.21523 0 0 1 -0.80566,0.42578 3.35362,3.35362 0 0 1 -0.99219,0.14746 2.63484,2.63484 0 0 1 -1.92285,-0.666 2.545,2.545 0 0 1 -0.68262,-1.90723 V 5.7917 H 47.11816 V 4.56709 h 1.39551 V 2.76827 H 50.002 v 1.79882 h 2.35743 V 5.7917 H 50.002 v 4.44971 a 1.44167,1.44167 0 0 0 0.334,1.02344 1.23829,1.23829 0 0 0 0.95312,0.35644 1.79164,1.79164 0 0 0 1.16309,-0.38769 z"
             style="fill:#231f20"
             id="path18"
             inkscape:connector-curvature="0" />
        </g>
      </g>
      <g
         id="EXPERIENCE-AWESOME"
         style="isolation:isolate">
        <g
           style="isolation:isolate"
           id="g55">
          <path
             d="M 16.334,16.16622 H 15.34475 V 14.44844 H 16.334 v 0.29883 h -0.625 v 0.37695 h 0.582 v 0.29785 h -0.582 v 0.44336 h 0.625 z"
             style="fill:#231f20"
             id="path23"
             inkscape:connector-curvature="0" />
          <path
             d="M 18.70605,16.16622 H 18.29 l -0.39942,-0.64942 -0.39941,0.64942 h -0.38965 l 0.56934,-0.88575 -0.5332,-0.832 H 17.54 l 0.37012,0.61817 0.3623,-0.61817 H 18.665 L 18.126,15.3 Z"
             style="fill:#231f20"
             id="path25"
             inkscape:connector-curvature="0" />
          <path
             d="m 20.73438,14.98457 a 0.525,0.525 0 0 1 -0.17286,0.42383 0.743,0.743 0 0 1 -0.49316,0.14649 h -0.15625 v 0.61133 h -0.36426 v -1.71778 h 0.54883 a 0.73035,0.73035 0 0 1 0.47559,0.13477 0.491,0.491 0 0 1 0.16211,0.40136 z m -0.82227,0.27247 h 0.12012 a 0.39914,0.39914 0 0 0 0.251,-0.06641 0.23184,0.23184 0 0 0 0.084,-0.19336 0.23912,0.23912 0 0 0 -0.07031,-0.18945 0.32885,0.32885 0 0 0 -0.21876,-0.06055 h -0.166 z"
             style="fill:#231f20"
             id="path27"
             inkscape:connector-curvature="0" />
          <path
             d="m 22.67383,16.16622 h -0.98926 v -1.71778 h 0.98926 v 0.29883 h -0.625 v 0.37695 h 0.582 v 0.29785 h -0.582 v 0.44336 h 0.625 z"
             style="fill:#231f20"
             id="path29"
             inkscape:connector-curvature="0" />
          <path
             d="m 24.02148,15.507 v 0.65918 h -0.36425 v -1.71774 h 0.501 a 0.85335,0.85335 0 0 1 0.51758,0.12793 0.50846,0.50846 0 0 1 0.085,0.65625 0.55445,0.55445 0 0 1 -0.23633,0.18555 q 0.38819,0.57861 0.50489,0.748 H 24.626 l -0.41016,-0.65918 z m 0,-0.2959 h 0.11817 a 0.45322,0.45322 0 0 0 0.25488,-0.05762 0.20509,0.20509 0 0 0 0.082,-0.18066 0.18762,0.18762 0 0 0 -0.084,-0.17383 0.50449,0.50449 0 0 0 -0.26074,-0.05176 h -0.11036 z"
             style="fill:#231f20"
             id="path31"
             inkscape:connector-curvature="0" />
          <path
             d="m 25.87207,16.16622 v -1.71778 h 0.36426 v 1.71778 z"
             style="fill:#231f20"
             id="path33"
             inkscape:connector-curvature="0" />
          <path
             d="M 28.2832,16.16622 H 27.294 v -1.71778 h 0.98925 v 0.29883 h -0.625 v 0.37695 h 0.582 v 0.29785 h -0.582 v 0.44336 h 0.625 z"
             style="fill:#231f20"
             id="path35"
             inkscape:connector-curvature="0" />
          <path
             d="m 30.791,16.16622 h -0.4629 l -0.74707,-1.29981 h -0.01074 c 0.01465,0.22949 0.02246,0.39356 0.02246,0.49121 v 0.8086 H 29.2666 v -1.71778 h 0.46 l 0.7461,1.28613 h 0.0078 C 30.46879,15.51192 30.46293,15.35372 30.46293,15.26192 V 14.44844 H 30.791 Z"
             style="fill:#231f20"
             id="path37"
             inkscape:connector-curvature="0" />
          <path
             d="m 32.57812,14.72676 a 0.37244,0.37244 0 0 0 -0.31835,0.1543 0.721,0.721 0 0 0 -0.11231,0.43066 q 0,0.57569 0.43066,0.5752 A 1.354,1.354 0 0 0 33.0166,15.7961 v 0.30566 a 1.21535,1.21535 0 0 1 -0.47168,0.08789 0.7234,0.7234 0 0 1 -0.57422,-0.22754 0.96473,0.96473 0 0 1 -0.19824,-0.65234 1.06249,1.06249 0 0 1 0.09766,-0.46973 0.70562,0.70562 0 0 1 0.28027,-0.30859 0.833,0.833 0 0 1 0.42773,-0.10742 1.14906,1.14906 0 0 1 0.50293,0.12109 l -0.11718,0.2959 a 2.02561,2.02561 0 0 0 -0.19336,-0.08008 0.58835,0.58835 0 0 0 -0.19239,-0.03418 z"
             style="fill:#231f20"
             id="path39"
             inkscape:connector-curvature="0" />
          <path
             d="m 34.99609,16.16622 h -0.98925 v -1.71778 h 0.98925 v 0.29883 h -0.625 v 0.37695 h 0.582 v 0.29785 h -0.582 v 0.44336 h 0.625 z"
             style="fill:#231f20"
             id="path41"
             inkscape:connector-curvature="0" />
          <path
             d="m 38.28223,16.16622 -0.124,-0.40918 h -0.627 l -0.124,0.40918 h -0.39258 l 0.60644,-1.72461 h 0.44532 l 0.60839,1.72461 z M 38.07129,15.45235 C 37.95605,15.08125 37.89062,14.87227 37.87598,14.82344 37.8623,14.77461 37.85156,14.73653 37.8457,14.70821 q -0.03954,0.15087 -0.22265,0.74414 z"
             style="fill:#231f20"
             id="path43"
             inkscape:connector-curvature="0" />
          <path
             d="m 41.18945,16.16622 h -0.41406 l -0.23242,-0.90235 c -0.0088,-0.03222 -0.02344,-0.09863 -0.04492,-0.19922 Q 40.46728,14.91378 40.46289,14.8625 c -0.0049,0.042 -0.0166,0.11036 -0.03516,0.20313 -0.01953,0.09375 -0.0332,0.16113 -0.04394,0.20019 l -0.23145,0.9004 h -0.41308 l -0.43848,-1.71778 h 0.3584 l 0.21973,0.9375 c 0.03808,0.17285 0.0664,0.32324 0.083,0.4502 0.0049,-0.04492 0.01563,-0.11426 0.03223,-0.207 0.01758,-0.09375 0.0332,-0.167 0.04785,-0.21875 l 0.25,-0.96192 h 0.34473 l 0.25,0.96192 c 0.01074,0.04394 0.02441,0.10937 0.041,0.19824 0.01661,0.08789 0.0293,0.16406 0.03809,0.22754 0.0078,-0.06153 0.02051,-0.1377 0.03711,-0.22852 0.01758,-0.09082 0.0332,-0.165 0.04687,-0.22168 l 0.21875,-0.9375 h 0.3584 z"
             style="fill:#231f20"
             id="path45"
             inkscape:connector-curvature="0" />
          <path
             d="M 43.457,16.16622 H 42.46774 V 14.44844 H 43.457 v 0.29883 h -0.625 v 0.37695 h 0.582 v 0.29785 h -0.582 v 0.44336 h 0.625 z"
             style="fill:#231f20"
             id="path47"
             inkscape:connector-curvature="0" />
          <path
             d="m 45.45605,15.68965 a 0.44634,0.44634 0 0 1 -0.168,0.36621 0.72865,0.72865 0 0 1 -0.46582,0.13379 1.08621,1.08621 0 0 1 -0.48633,-0.10351 v -0.33789 a 2.05863,2.05863 0 0 0 0.29394,0.10937 0.90773,0.90773 0 0 0 0.22071,0.03125 0.31234,0.31234 0 0 0 0.18359,-0.0459 0.1559,0.1559 0 0 0 0.06445,-0.13574 0.14913,0.14913 0 0 0 -0.02832,-0.08984 0.31786,0.31786 0 0 0 -0.083,-0.07617 1.95534,1.95534 0 0 0 -0.22265,-0.11622 1.073,1.073 0 0 1 -0.23633,-0.14257 0.53057,0.53057 0 0 1 -0.125,-0.15821 0.455,0.455 0 0 1 -0.04687,-0.21191 0.4431,0.4431 0 0 1 0.15429,-0.3584 0.64044,0.64044 0 0 1 0.42676,-0.12988 1.04324,1.04324 0 0 1 0.25586,0.03125 1.80937,1.80937 0 0 1 0.25391,0.08984 l -0.11719,0.2832 a 1.65369,1.65369 0 0 0 -0.22754,-0.0791 0.74321,0.74321 0 0 0 -0.17676,-0.02246 0.2306,0.2306 0 0 0 -0.1582,0.04883 0.16817,0.16817 0 0 0 -0.0332,0.209 0.23063,0.23063 0 0 0 0.07128,0.06934 2.2366,2.2366 0 0 0 0.23047,0.12109 0.91525,0.91525 0 0 1 0.33008,0.23047 0.45135,0.45135 0 0 1 0.08987,0.28416 z"
             style="fill:#231f20"
             id="path49"
             inkscape:connector-curvature="0" />
          <path
             d="m 47.95117,15.30489 a 0.92807,0.92807 0 0 1 -0.21191,0.65527 0.91475,0.91475 0 0 1 -1.21192,0 1.1221,1.1221 0 0 1 0,-1.3125 0.79585,0.79585 0 0 1 0.6084,-0.22559 0.78017,0.78017 0 0 1 0.60547,0.22754 0.93339,0.93339 0 0 1 0.20996,0.65528 z m -1.2539,0 a 0.713,0.713 0 0 0 0.10937,0.43359 0.3809,0.3809 0 0 0 0.32617,0.14551 c 0.291,0 0.43653,-0.19238 0.43653,-0.5791 0,-0.38672 -0.14454,-0.58008 -0.4336,-0.58008 a 0.38531,0.38531 0 0 0 -0.32812,0.14648 0.71673,0.71673 0 0 0 -0.11035,0.4336 z"
             style="fill:#231f20"
             id="path51"
             inkscape:connector-curvature="0" />
          <path
             d="m 49.66016,16.16622 -0.41309,-1.34766 h -0.01074 c 0.01465,0.27441 0.02246,0.457 0.02246,0.54883 v 0.79883 h -0.32617 v -1.71778 h 0.49609 l 0.40625,1.31348 h 0.0068 l 0.43164,-1.31348 h 0.49609 v 1.71778 h -0.33984 v -0.8125 c 0,-0.03907 10e-4,-0.083 0.002,-0.13282 0.001,-0.05078 0.0059,-0.18359 0.01563,-0.39941 h -0.01075 l -0.44238,1.34473 z"
             style="fill:#231f20"
             id="path53"
             inkscape:connector-curvature="0" />
        </g>
        <g
           style="isolation:isolate"
           id="g59">
          <path
             d="m 52.74219,16.16622 h -0.98926 v -1.71778 h 0.98926 v 0.29883 h -0.625 v 0.37695 h 0.582 v 0.29785 h -0.582 v 0.44336 h 0.625 z"
             style="fill:#231f20"
             id="path57"
             inkscape:connector-curvature="0" />
        </g>
      </g>
    </g>
  </g>
</svg>
