<svg width="456" height="88" viewBox="0 0 456 88" fill="none" xmlns="http://www.w3.org/2000/svg">
<path fill-rule="evenodd" clip-rule="evenodd" d="M14.4832 2.32702C3.4379 13.6817 -1.7974 29.8065 0.552979 45.2348C3.38648 63.8364 16.6793 79.6516 34.4537 85.5687C40.3374 87.5274 43.0818 87.9471 50.1815 87.9734C57.4667 88.0001 60.757 87.4979 66.8934 85.421C84.0029 79.6306 96.7778 64.7907 100.189 46.7427C101.099 41.9268 101.002 32.8781 99.985 27.8931C98.4154 20.1949 95.2972 13.2895 90.4972 6.87988C88.6733 4.44481 84.1042 2.09936e-07 83.4271 0.0024284C82.701 0.00526129 76.9072 6.55653 76.9121 7.36916C76.9141 7.6565 77.9366 8.98431 79.1851 10.3198C83.9183 15.3838 87.4823 21.9335 89.1309 28.5976C90.3102 33.3642 90.4005 41.6427 89.3233 46.2615C85.8661 61.0897 74.9169 72.2901 59.9006 76.3586C55.802 77.4691 44.6239 77.3533 40.26 76.155C33.6616 74.3436 27.486 70.7555 22.5159 65.8453C10.9965 54.4644 7.61507 37.2044 13.9575 22.1581C15.6086 18.2414 19.107 12.9698 21.8036 10.3352C22.9343 9.23037 23.8592 7.99361 23.8592 7.58689C23.8592 6.63463 18.1849 0.00566599 17.3673 0.0024284C17.0259 0.00121431 15.7284 1.04736 14.4832 2.32702ZM44.7235 1.31527C44.5967 2.03847 43.4054 9.64195 42.0759 18.2114C39.0265 37.8656 39.001 38.0182 38.7617 38.2574C38.6523 38.3667 37.9983 37.1793 37.3083 35.6183L36.0541 32.7806H26.717H17.3798V36.0182V39.2558H24.4172C29.5756 39.2558 31.555 39.391 31.8316 39.7617C32.039 40.0401 33.3676 42.8171 34.7842 45.9333C36.2007 49.0495 37.5565 51.7371 37.7975 51.9059C38.0384 52.0746 39.4185 52.1657 40.865 52.1082L43.4949 52.0038L44.9835 42.3574C45.8019 37.0518 46.5612 32.6212 46.6709 32.5115C46.9755 32.2076 47.6663 40.688 48.7698 58.2766C49.112 63.7299 49.487 68.7838 49.6029 69.507L49.8134 70.8223H53.0057H56.1984L56.6236 68.6976C56.8573 67.5293 58.3338 59.3794 59.9046 50.5874C61.4759 41.7953 62.8203 34.4196 62.8932 34.1971C62.9661 33.9745 63.6319 35.0109 64.3725 36.4998L65.7198 39.2072L68.1759 39.4642C69.5268 39.6058 73.5477 39.6621 77.1113 39.5897L83.5907 39.4581L83.7081 36.1194C83.813 33.1509 83.7454 32.7753 83.1007 32.7341C82.7022 32.7082 79.7237 32.7248 76.482 32.7701C71.7505 32.8365 70.4923 32.7369 70.1007 32.2654C69.8322 31.9421 68.5436 29.6041 67.2364 27.0695L64.8601 22.4608H61.4912H58.1224L56.6038 31.3642C54.56 43.3493 54.4506 43.6674 54.0934 38.6487C52.8385 21.0095 51.807 5.11458 51.8046 3.3675C51.8002 0.473497 51.2288 0 47.7413 0H44.9539L44.7235 1.31527ZM133.146 17.5217C125.487 19.2931 121.045 24.2106 120.671 31.3353C120.417 36.1731 121.257 38.7372 123.99 41.4685C127.016 44.492 129.396 45.5673 138.32 47.9429C142.824 49.142 145.25 50.5475 146.292 52.5609C147.019 53.9648 147.114 57.514 146.46 58.7872C144.927 61.7694 141.298 63.419 137.302 62.9496C133.196 62.4671 131.017 60.7253 129.489 56.7022L128.772 54.8147H124.176H119.579L119.66 56.2635C119.705 57.0604 120.118 58.7184 120.579 59.9483C122.392 64.7921 125.731 68.2871 130.209 70.0289C133.016 71.1212 139.962 71.547 143.3 70.8315C146.847 70.0714 150.358 68.0908 152.766 65.4907C155.739 62.2814 156.753 59.5849 156.789 54.7876C156.815 51.4314 156.704 50.8883 155.493 48.4306C153.18 43.7349 150.019 41.7522 140.232 38.8586C136.941 37.8853 133.883 36.7141 132.943 36.0658C130.131 34.1281 129.648 30.4462 131.861 27.8184C133.215 26.2102 135.037 25.474 137.662 25.474C141.55 25.474 144.551 27.7658 145.269 31.2847L145.529 32.5563L150.278 32.6704L155.027 32.7845L154.762 31.0516C153.817 24.8941 149.499 19.6698 143.941 17.9612C141.142 17.1008 135.891 16.8871 133.146 17.5217ZM313.151 17.5435C305.223 19.0826 299.219 22.8326 295.415 28.6206C289.787 37.1836 289.166 47.5249 293.72 56.8382C298.236 66.073 307.035 71.205 318.353 71.205C327.293 71.205 334.218 68.1714 339.387 61.99C341.279 59.7281 344.13 54.6516 344.13 53.5464C344.13 53.1105 343.122 52.9935 339.367 52.9935H334.604L332.733 55.5719C329.325 60.2684 325.024 62.3049 318.529 62.2972C312.644 62.2903 309.21 60.9568 305.802 57.3562C302.321 53.6775 300.795 49.6341 300.804 44.1064C300.823 32.3094 309.591 24.6501 321.29 26.2122C326.347 26.8876 330.95 29.6926 333.273 33.5158C333.764 34.3236 334.357 35.1184 334.592 35.2819C335.216 35.717 343.636 35.6579 343.909 35.2163C344.305 34.5765 342.536 30.672 340.662 28.0479C339.68 26.6715 337.924 24.7136 336.761 23.6966C334.257 21.5076 329.107 18.8439 325.704 17.977C322.212 17.0875 316.515 16.8908 313.151 17.5435ZM179.071 32.3665C178.159 32.547 176.584 33.0844 175.571 33.5603C173.755 34.4134 170.875 36.9286 170.735 37.7838C170.696 38.0245 170.559 36.9472 170.432 35.3892L170.199 32.5563H165.542H160.885V51.5771V70.5979L165.846 70.7117L170.807 70.8254V58.858C170.807 47.8765 170.87 46.7673 171.58 45.3893C173.213 42.2156 175.488 40.8526 179.151 40.8526C182.378 40.8526 184.232 41.9279 185.545 44.5604L186.6 46.6774V58.7387V70.8003H191.696H196.792L196.632 57.5464C196.483 45.2124 196.41 44.11 195.584 41.662C194.532 38.547 192.455 35.5866 190.347 34.1989C187.491 32.3191 182.996 31.5886 179.071 32.3665ZM215.577 32.3794C214.475 32.5635 212.259 33.3632 210.653 34.1564C197.127 40.8376 196.906 62.1033 210.291 69.0386C213.658 70.7829 216.443 71.3531 220.369 71.1022C224.461 70.8404 227.504 69.5643 230.324 66.9281L232.361 65.0236V67.912V70.8003H237.018H241.675V51.5638V32.3272L237.12 32.4417L232.564 32.5563L232.445 35.4721L232.326 38.3884L230.9 36.8105C227.424 32.9646 221.801 31.3389 215.577 32.3794ZM265.365 32.5194C262.611 33.2013 260.162 34.5231 258.055 36.4636L256.292 38.0873L256.172 35.3216L256.051 32.5563H251.394H246.737V60.2781V88H251.597H256.456L256.564 76.7348L256.672 65.47L258.846 67.4559C265.037 73.1103 276.15 72.3224 282.677 65.7654C290.039 58.3688 290.036 45.0052 282.67 37.6437C278.026 33.0035 271.371 31.0326 265.365 32.5194ZM363.163 32.4114C354.484 33.8444 347.885 41.921 347.798 51.2185C347.685 63.1345 356.499 71.8918 367.809 71.101C371.737 70.8262 374.852 69.5417 377.538 67.0888L379.766 65.0532V67.9269V70.8003H384.423H389.08V51.7795V32.7586H384.828C382.49 32.7586 380.44 32.7129 380.272 32.6574C380.105 32.602 379.915 33.8683 379.85 35.4721L379.731 38.3884L378.339 36.8477C376.459 34.7683 372.808 32.8954 369.628 32.3798C366.664 31.899 366.254 31.9011 363.163 32.4114ZM432.147 32.5474C425.352 33.7797 419.857 38.649 417.817 45.2456C416.74 48.7276 416.728 54.8082 417.789 58.2178C420.337 66.4 427.459 71.205 437.037 71.205C441.98 71.205 445.994 69.8108 450.126 66.659C452.191 65.0835 455.493 60.7561 455.493 59.6249C455.493 59.1814 454.579 59.064 451.128 59.064H446.762L445.365 60.5444C443.155 62.886 440.91 63.7189 436.865 63.6982C434.167 63.6845 433.073 63.4963 431.803 62.8261C429.04 61.368 426.741 58.2894 426.741 56.049V55.017H441.37H456L455.823 50.393C455.656 46.0364 455.558 45.5908 454.127 42.698C453.237 40.8987 451.783 38.802 450.614 37.6344C448.028 35.05 443.635 32.8885 439.902 32.3636C436.415 31.8735 435.78 31.8885 432.147 32.5474ZM412.972 32.7501C409.27 33.3952 405.89 35.3802 404.436 37.7631L403.661 39.0314L403.66 35.895L403.659 32.7586H398.799H393.94V51.7795V70.8003H398.742H403.544L403.745 60.3688C403.93 50.7564 404.015 49.7794 404.834 47.9291C406.521 44.1193 408.848 42.5904 413.637 42.1464L416.679 41.8643L416.681 37.2103C416.683 31.9278 416.81 32.0811 412.972 32.7501ZM441.164 40.2059C443.922 41.4892 446.584 45.0764 446.584 47.5099V48.5419H436.452H426.321L426.597 47.4289C426.749 46.817 427.11 45.7462 427.4 45.0497C429.48 40.0408 435.931 37.7708 441.164 40.2059ZM224.937 40.9084C226.706 41.4451 229.791 44.2525 230.822 46.2642C232.007 48.5722 232.273 53.0466 231.385 55.7172C229.635 60.9823 224.247 63.9326 218.568 62.7359C210.662 61.0701 207.45 50.809 212.774 44.2241C215.721 40.5794 220.004 39.4119 224.937 40.9084ZM272.794 41.6296C276.88 43.7134 279.269 49.4099 278.104 54.2947C277.528 56.7107 276.903 57.8633 275.113 59.8079C270.186 65.1608 261.051 63.6663 257.707 56.96C255.475 52.4832 256.69 45.7195 260.224 42.9518C262.405 41.2435 263.445 40.7781 265.742 40.4815C268.244 40.1585 270.689 40.5564 272.794 41.6296ZM373.113 41.2472C375.057 42.0845 377.379 44.3593 378.418 46.4459C378.979 47.5742 379.159 48.8656 379.159 51.7795C379.159 55.2445 379.049 55.8111 378.045 57.5165C375.044 62.6185 368.729 64.4919 363.333 61.8811C358.536 59.5606 356.174 52.2351 358.46 46.7681C359.184 45.0372 361.723 42.2039 363.265 41.407C366.043 39.9711 369.999 39.9068 373.113 41.2472Z" fill="black"/>
</svg>
