<?xml version="1.0" encoding="UTF-8" standalone="no"?>
<svg
   xmlns:dc="http://purl.org/dc/elements/1.1/"
   xmlns:cc="http://creativecommons.org/ns#"
   xmlns:rdf="http://www.w3.org/1999/02/22-rdf-syntax-ns#"
   xmlns:svg="http://www.w3.org/2000/svg"
   xmlns="http://www.w3.org/2000/svg"
   xmlns:sodipodi="http://sodipodi.sourceforge.net/DTD/sodipodi-0.dtd"
   xmlns:inkscape="http://www.inkscape.org/namespaces/inkscape"
   id="logo-layer"
   viewBox="0 0 142.90879 31.784642"
   version="1.1"
   sodipodi:docname="swissphone.svg"
   inkscape:version="0.92.4 (33fec40, 2019-01-16)"
   width="142.90878"
   height="31.784641">
  <metadata
     id="metadata36">
    <rdf:RDF>
      <cc:Work
         rdf:about="">
        <dc:format>image/svg+xml</dc:format>
        <dc:type
           rdf:resource="http://purl.org/dc/dcmitype/StillImage" />
        <dc:title>fontArtboard 6</dc:title>
      </cc:Work>
    </rdf:RDF>
  </metadata>
  <defs
     id="defs34" />
  <sodipodi:namedview
     pagecolor="#ffffff"
     bordercolor="#666666"
     borderopacity="1"
     objecttolerance="10"
     gridtolerance="10"
     guidetolerance="10"
     inkscape:pageopacity="0"
     inkscape:pageshadow="2"
     inkscape:window-width="652"
     inkscape:window-height="480"
     id="namedview32"
     showgrid="false"
     inkscape:zoom="1.7003855"
     inkscape:cx="23.720656"
     inkscape:cy="58.780098"
     inkscape:window-x="67"
     inkscape:window-y="27"
     inkscape:window-maximized="0"
     inkscape:current-layer="logo-layer" />
  <title
     id="title2">fontArtboard 6</title>
  <g
     id="LiP4uZ.tif"
     transform="translate(0,-8.7750465)">
    <path
       d="M 9.7902,21.62412 C 9.6332,21.19632 9.50657,20.85407 9.35889,20.45206 a 172.153,172.153 0 0 1 124.62728,-0.007 l -0.43014,1.17909 a 170.818,170.818 0 0 0 -123.76583,0 z"
       id="path4"
       inkscape:connector-curvature="0" />
    <path
       d="m 19.63315,35.4544 c 0.67628,-1.85654 1.32208,-3.62517 1.96437,-5.39146 0.35161,-0.974 0.35161,-0.97516 1.3842,-0.97516 0.59658,0 1.19433,0.01876 1.78973,-0.007 a 0.53388,0.53388 0 0 1 0.62341,0.426 l 1.3e-4,6.8e-4 c 0.63057,1.79208 1.28926,3.57361 1.94093,5.35865 0.05977,0.16526 0.13009,0.32583 0.23441,0.586 0.41842,-1.14276 0.80872,-2.20347 1.1955,-3.26536 0.33052,-0.90717 0.66455,-1.81317 0.97984,-2.7262 a 0.45478,0.45478 0 0 1 0.50867,-0.37506 c 0.94819,0.01992 1.89874,0.007 2.91491,0.007 -0.29419,0.82044 -0.5661,1.59283 -0.84505,2.36053 -1.02087,2.81294 -2.04993,5.62588 -3.05908,8.43881 a 0.54091,0.54091 0 0 1 -0.61767,0.43718 c -0.80638,-0.02813 -1.61393,-0.02461 -2.41913,0 A 0.48624,0.48624 0 0 1 25.6798,39.9352 c -0.60361,-1.69831 -1.22363,-3.38959 -1.84013,-5.08321 -0.06916,-0.191 -0.14651,-0.37858 -0.25434,-0.654 -0.54735,1.50492 -1.0654,2.93014 -1.58228,4.346 -0.177,0.48523 -0.33052,0.97984 -0.54032,1.44866 a 0.61417,0.61417 0 0 1 -0.43366,0.31411 c -0.86967,0.0293 -1.74168,0.027 -2.61252,0 a 0.54969,0.54969 0 0 1 -0.41256,-0.27308 q -1.97727,-5.368 -3.92288,-10.74778 a 0.76508,0.76508 0 0 1 0,-0.19339 c 1.015,0 2.02649,-0.01289 3.0368,0.01876 0.11721,0 0.26723,0.23441 0.32466,0.39264 0.68448,1.84013 1.35373,3.68612 2.02766,5.52977 0.03516,0.1019 0.07736,0.20506 0.16292,0.42072 z"
       id="path6"
       inkscape:connector-curvature="0" />
    <path
       d="M 85.77591,40.27977 V 29.11122 h 4.0647 v 4.353 h 4.02484 v -4.33776 h 4.07408 V 40.2868 H 93.8889 v -4.38936 h -4.03423 v 4.38232 z"
       id="path8"
       inkscape:connector-curvature="0" />
    <path
       d="m 119.97422,33.86858 v 6.342 h -3.18564 V 29.19327 a 2.9753,2.9753 0 0 1 0.35747,-0.04454 10.45393,10.45393 0 0 0 1.546,-0.01642 2.78477,2.78477 0 0 1 2.78363,1.233 c 1.33615,1.61158 2.7977,3.11767 4.2077,4.66713 0.0715,0.0797 0.15354,0.15 0.29418,0.28364 v -6.124 h 3.23371 v 11.042 c -1.14158,0 -2.26558,0.01054 -3.3896,-0.01289 -0.13947,0 -0.29771,-0.16527 -0.4067,-0.2895 q -2.49882,-2.85632 -4.98594,-5.72434 c -0.11721,-0.13009 -0.23441,-0.2555 -0.35162,-0.38326 z"
       id="path10"
       inkscape:connector-curvature="0" />
    <path
       d="m 107.04291,28.85923 a 7.745,7.745 0 0 1 4.95076,1.41468 c 3.17981,2.46835 2.41678,8.2384 -1.458,9.6812 a 8.68634,8.68634 0 0 1 -6.59634,-0.09376 5.29953,5.29953 0 0 1 -3.27473,-5.6001 5.48307,5.48307 0 0 1 4.92264,-5.245 c 0.5731,-0.09725 1.15562,-0.12537 1.45567,-0.15702 z m 2.70394,5.90249 a 5.92807,5.92807 0 0 0 -0.51454,-2.51172 1.99392,1.99392 0 0 0 -1.93155,-1.1158 1.86688,1.86688 0 0 0 -1.90811,1.14158 6.12117,6.12117 0 0 0 0.0504,4.87928 1.9154,1.9154 0 0 0 2.03234,1.0947 1.8144,1.8144 0 0 0 1.82022,-1.32325 c 0.20862,-0.70792 0.3059,-1.444 0.45241,-2.16479 z"
       id="path12"
       inkscape:connector-curvature="0" />
    <path
       d="m 74.94258,35.88572 v 4.39522 H 70.87319 V 29.12646 c 3.004,0 5.98571,-0.03282 8.96508,0.0211 a 4.07029,4.07029 0 0 1 2.42381,0.9939 2.841,2.841 0 0 1 -0.05742,4.69761 5.26129,5.26129 0 0 1 -3.16456,1.01969 c -1.19315,0.01876 -2.3863,0 -3.57946,0.0059 -0.15941,-4e-5 -0.31647,0.0129 -0.51806,0.0211 z m 0,-2.39451 c 1.08532,0 2.09681,0.02461 3.1083,-0.0094 a 0.95706,0.95706 0 0 0 0.92241,-0.98805 0.98661,0.98661 0 0 0 -0.86616,-1.05485 c -1.03961,-0.03751 -2.0804,-0.01055 -3.16455,-0.01055 z"
       id="path14"
       inkscape:connector-curvature="0" />
    <path
       d="m 11.79681,30.22585 c -0.6083,0.42077 -1.18144,0.8392 -1.78153,1.21542 a 0.65516,0.65516 0 0 1 -0.54266,0.02814 5.58486,5.58486 0 0 0 -3.29818,-0.71965 2.508,2.508 0 0 0 -0.94585,0.32935 0.93569,0.93569 0 0 0 -0.41491,0.6376 0.77907,0.77907 0 0 0 0.44656,0.55087 12.81089,12.81089 0 0 0 1.80614,0.511 11.587,11.587 0 0 1 4.523,1.58931 2.67307,2.67307 0 0 1 0.4782,4.01664 4.08,4.08 0 0 1 -2.01242,1.36779 17.852,17.852 0 0 1 -3.07079,0.59541 9.135,9.135 0 0 1 -4.857,-0.79466 A 6.77748,6.77748 0 0 1 0,37.80086 L 2.1437,36.351 a 5.3787,5.3787 0 0 0 3.958,1.5143 5.50893,5.50893 0 0 0 1.83075,-0.33052 0.60942,0.60942 0 0 0 0.17,-1.151 A 3.985,3.985 0 0 0 6.80381,35.792 C 5.82514,35.52828 4.8242,35.34661 3.8385,35.10517 A 9.09981,9.09981 0 0 1 2.69692,34.716 2.82414,2.82414 0 0 1 1.7663,30.01721 a 5.27771,5.27771 0 0 1 3.5068,-1.53773 9.23348,9.23348 0 0 1 6.26114,1.48968 c 0.06563,0.04454 0.13127,0.09141 0.19339,0.143 a 0.52655,0.52655 0 0 1 0.06918,0.11369 z"
       id="path16"
       inkscape:connector-curvature="0" />
    <path
       d="m 53.14464,30.18249 c -0.67042,0.46882 -1.29512,0.90951 -1.93741,1.32911 -0.08556,0.05509 -0.26137,0 -0.38444,-0.03985 A 14.72459,14.72459 0 0 0 48.44,30.731 a 4.63036,4.63036 0 0 0 -1.86241,0.31177 0.8441,0.8441 0 0 0 -0.44069,0.654 0.81114,0.81114 0 0 0 0.48054,0.56962 c 0.763,0.24613 1.546,0.43366 2.33006,0.60478 a 11.81384,11.81384 0 0 1 3.87716,1.40646 2.74442,2.74442 0 0 1 0.39967,4.26043 6.33714,6.33714 0 0 1 -3.53141,1.63151 11.47337,11.47337 0 0 1 -5.21683,-0.23441 6.11118,6.11118 0 0 1 -3.16456,-2.17769 l 2.14253,-1.43108 a 5.03782,5.03782 0 0 0 2.98875,1.42761 4.82545,4.82545 0 0 0 2.7098,-0.19222 c 0.71027,-0.30708 0.804,-0.88842 0.14417,-1.29864 a 5.729,5.729 0 0 0 -1.5143,-0.57783 C 46.6362,35.3712 45.46414,35.14265 44.32608,34.80275 a 2.65836,2.65836 0 0 1 -2.08861,-2.28434 3.11292,3.11292 0 0 1 1.41234,-3.03682 6.51038,6.51038 0 0 1 4.03419,-1.07948 8.835,8.835 0 0 1 5.11134,1.50258 c 0.10903,0.07737 0.20279,0.16059 0.3493,0.2778 z"
       id="path18"
       inkscape:connector-curvature="0" />
    <path
       d="m 55.1594,37.76688 2.10971,-1.4182 c 0.1383,0.109 0.27192,0.21566 0.40788,0.32115 a 5.90655,5.90655 0 0 0 4.84294,1.05485 c 0.44538,-0.0797 1.00328,-0.184 1.03259,-0.77356 0.02931,-0.58956 -0.477,-0.8474 -0.92945,-0.97632 -1.05485,-0.3 -2.12845,-0.50516 -3.19034,-0.77 -0.48289,-0.11721 -0.9564,-0.28129 -1.4264,-0.44538 -2.46132,-0.85677 -2.47187,-3.66737 -0.75832,-5.07736 a 5.56252,5.56252 0 0 1 3.05556,-1.2037 9.20913,9.20913 0 0 1 6.27871,1.40647 c 0.11721,0.07853 0.23442,0.16877 0.40554,0.30122 -0.67978,0.46882 -1.315,0.92358 -1.96906,1.349 -0.0797,0.05274 -0.25785,-0.02462 -0.38326,-0.06564 a 16.05738,16.05738 0 0 0 -2.3324,-0.73019 3.96876,3.96876 0 0 0 -1.73348,0.24027 1.00372,1.00372 0 0 0 -0.586,0.70324 c -0.01759,0.19925 0.33755,0.55438 0.586,0.63291 0.87319,0.26957 1.77332,0.45593 2.66644,0.65752 a 9.52242,9.52242 0 0 1 3.44233,1.33849 2.66485,2.66485 0 0 1 0.395,4.21355 6.03144,6.03144 0 0 1 -3.61346,1.669 11.49371,11.49371 0 0 1 -5.1219,-0.24144 6.16864,6.16864 0 0 1 -3.17863,-2.18588 z"
       id="path20"
       inkscape:connector-curvature="0" />
    <path
       d="m 136.015,31.43073 v 2.06634 h 4.4538 v 2.36521 h -4.43976 v 2.04993 h 6.8495 v 2.37107 H 131.93506 V 29.11122 h 10.80874 v 2.31716 z"
       id="path22"
       inkscape:connector-curvature="0" />
    <path
       d="m 39.66481,40.28914 c -0.1512,0.01055 -0.27661,0.02579 -0.402,0.02579 h -3.658 V 29.1288 h 4.06 z"
       id="path24"
       inkscape:connector-curvature="0" />
    <path
       d="m 142.9079,23.03527 a 2.64534,2.64534 0 0 1 -5.2887,0.14452 q -0.001,-0.05174 -7.9e-4,-0.10349 a 2.64534,2.64534 0 0 1 5.2895,-0.041 z"
       id="path26"
       inkscape:connector-curvature="0" />
    <path
       d="m 6.51313,23.10208 a 2.98877,2.98877 0 0 1 -2.95432,3.0228 q -0.03655,4.1e-4 -0.07312,-6e-5 a 3.0473514,3.0473514 0 1 1 -0.00586,-6.0947 v 0 a 3.00168,3.00168 0 0 1 3.03395,2.96907 q 5.6e-4,0.05145 -6.5e-4,0.10289 z M 3.46581,21.2514 a 1.8284,1.8284 0 1 0 0.0911,-4.1e-4 q -0.04558,-9.3e-4 -0.0911,4.1e-4 z"
       id="path28"
       inkscape:connector-curvature="0" />
  </g>
</svg>
